<?xml version="1.0" standalone="no"?><!DOCTYPE svg PUBLIC "-//W3C//DTD SVG 1.1//EN" "http://www.w3.org/Graphics/SVG/1.1/DTD/svg11.dtd"><svg t="1689650221192" class="icon" viewBox="0 0 1024 1024" version="1.1" xmlns="http://www.w3.org/2000/svg" p-id="3371" xmlns:xlink="http://www.w3.org/1999/xlink" width="200" height="200"><path d="M390.97344 385.01888V328.27392c5.6064-0.34816 11.2128-0.70144 16.81408-0.70144 155.53024-4.90496 257.46432 133.8112 257.46432 133.8112s-109.99296 152.7296-228.03968 152.7296c-15.76448 0-31.17568-2.4576-45.88544-7.36256v-172.3392c60.60032 7.35232 72.8576 33.97632 108.93824 94.57152l80.91648-67.95776s-59.19744-77.4144-158.67904-77.4144c-10.51136-0.34816-21.0176 0.35328-31.52896 1.40288m0-187.7504v84.76672l16.81408-1.0496c216.13056-7.35744 357.29408 177.24416 357.29408 177.24416s-161.83296 196.864-330.32192 196.864c-14.70976 0-29.07136-1.40288-43.43296-3.85536v52.54144c11.90912 1.40288 24.1664 2.4576 36.07552 2.4576 156.928 0 270.42304-80.22016 380.416-174.7968 18.21696 14.71488 92.8256 50.09408 108.2368 65.50528-104.38656 87.57248-347.83744 157.98272-485.85216 157.98272-13.312 0-25.91744-0.70144-38.528-2.0992v73.91232h596.1728V197.28384z m0 409.48224v44.83584C245.95456 625.664 205.6704 474.68544 205.6704 474.68544s69.7088-77.056 185.30304-89.67168v49.04448h-0.34816c-60.60032-7.35744-108.2368 49.38752-108.2368 49.38752s26.97216 95.63136 108.59008 123.29984M133.51424 468.38272S219.33568 341.57568 391.3216 328.2688v-46.2336C200.77056 297.44128 36.13184 458.5728 36.13184 458.5728s93.17888 269.7216 354.8416 294.2464v-49.04448c-191.95904-23.81824-257.46432-235.392-257.46432-235.392z" fill="#76B900" p-id="3372"></path></svg>