<?xml version="1.0" standalone="no"?><!DOCTYPE svg PUBLIC "-//W3C//DTD SVG 1.1//EN" "http://www.w3.org/Graphics/SVG/1.1/DTD/svg11.dtd"><svg t="1692443150275" class="icon" viewBox="0 0 1024 1024" version="1.1" xmlns="http://www.w3.org/2000/svg" p-id="10239" xmlns:xlink="http://www.w3.org/1999/xlink" width="200" height="200"><path d="M695.717647 466.823529l-265.035294-177.694117c-21.082353-15.058824-51.2 0-51.2 27.105882v355.388235c0 27.105882 30.117647 42.164706 51.2 27.105883l265.035294-177.694118c18.070588-12.047059 18.070588-42.164706 0-54.211765z" fill="#1296db" p-id="10240"></path><path d="M671.623529 798.117647c-48.188235 0-84.329412 36.141176-90.352941 81.317647-24.094118 3.011765-48.188235 6.023529-72.282353 6.02353-60.235294 0-117.458824-12.047059-171.670588-39.152942-3.011765 0-6.023529 0-6.023529-3.011764v-12.047059c0-45.176471-36.141176-81.317647-81.317647-81.317647-12.047059 0-21.082353 3.011765-33.129412 6.023529-63.247059-72.282353-99.388235-165.647059-99.388235-262.023529 0-33.129412 3.011765-63.247059 12.047058-96.376471C174.682353 397.552941 210.823529 361.411765 210.823529 316.235294 210.823529 271.058824 174.682353 234.917647 129.505882 234.917647S48.188235 271.058824 48.188235 316.235294c0 21.082353 9.035294 42.164706 24.094118 57.22353-12.047059 39.152941-15.058824 78.305882-15.058824 120.470588 0 111.435294 42.164706 219.858824 114.447059 301.17647l3.011765 3.011765c-3.011765 9.035294-6.023529 21.082353-6.023529 30.117647 0 45.176471 36.141176 81.317647 81.317647 81.317647 18.070588 0 36.141176-6.023529 51.2-18.070588 3.011765 3.011765 6.023529 6.023529 9.035294 6.023529 63.247059 30.117647 129.505882 45.176471 198.77647 45.176471 27.105882 0 57.223529-3.011765 84.329412-9.035294 15.058824 27.105882 45.176471 45.176471 78.305882 45.17647 51.2 0 93.364706-42.164706 93.364706-93.364705s-42.164706-87.341176-93.364706-87.341177z m-421.647058 81.317647c-27.105882 0-51.2-21.082353-51.2-51.2 0-12.047059 3.011765-21.082353 9.035294-30.117647 3.011765-6.023529 6.023529-9.035294 12.047059-12.047059 9.035294-6.023529 18.070588-9.035294 30.117647-9.035294 27.105882 0 51.2 21.082353 51.2 51.2s-24.094118 51.2-51.2 51.2zM975.811765 286.117647c0-51.2-42.164706-93.364706-93.364706-93.364706-12.047059 0-21.082353 3.011765-33.129412 6.02353 0-3.011765-3.011765-6.023529-3.011765-6.02353-84.329412-96.376471-207.811765-150.588235-337.317647-150.588235-111.435294 0-219.858824 42.164706-304.188235 117.458823-12.047059 12.047059-12.047059 30.117647-3.011765 42.164706 12.047059 12.047059 30.117647 12.047059 42.164706 3.011765 72.282353-66.258824 165.647059-102.4 262.02353-102.4 111.435294 0 219.858824 48.188235 292.141176 132.517647l3.011765 3.011765c-9.035294 15.058824-15.058824 33.129412-15.058824 51.2 0 51.2 42.164706 93.364706 93.364706 93.364706 12.047059 36.141176 18.070588 75.294118 18.070588 114.447058 0 99.388235-36.141176 192.752941-105.411764 265.035295-12.047059 12.047059-12.047059 30.117647 3.011764 42.164705 6.023529 6.023529 12.047059 9.035294 21.082353 9.035295 9.035294 0 15.058824-3.011765 21.082353-9.035295 78.305882-84.329412 120.470588-192.752941 120.470588-307.2 0-45.176471-6.023529-90.352941-21.082352-132.517647 24.094118-21.082353 39.152941-48.188235 39.152941-78.305882z m-156.611765 0c0-33.129412 27.105882-63.247059 63.247059-63.247059s63.247059 27.105882 63.247059 63.247059c0 21.082353-9.035294 39.152941-24.094118 51.2-9.035294 9.035294-21.082353 12.047059-36.141176 12.047059h-3.011765c-36.141176 0-63.247059-27.105882-63.247059-63.247059z" fill="#1296db" p-id="10241"></path></svg>