<?xml version="1.0" standalone="no"?><!DOCTYPE svg PUBLIC "-//W3C//DTD SVG 1.1//EN" "http://www.w3.org/Graphics/SVG/1.1/DTD/svg11.dtd"><svg t="1688809430817" class="icon" viewBox="0 0 1024 1024" version="1.1" xmlns="http://www.w3.org/2000/svg" p-id="22500" xmlns:xlink="http://www.w3.org/1999/xlink" width="200" height="200"><path d="M886.33 107.98h-760c-24.26 0-44 19.74-44 44v618.05c0 24.26 19.74 44 44 44h760c24.26 0 44-19.74 44-44V151.98c0-24.27-19.74-44-44-44z m-28 72v293.11L735.21 354.16a66.093 66.093 0 0 0-91.92-0.18l-195 186.92-80.17-80.17c-25.84-25.84-67.9-25.84-93.74 0L154.33 580.79V179.98h704z m-704 562.04v-59.41l166.92-166.92 80.08 80.08c12.33 12.33 28.73 19.23 46.17 19.41h0.72c17.17 0 33.43-6.53 45.85-18.43l195.07-186.99 169.18 163.41v168.84H154.33z" fill="#d81e06" p-id="22501"></path><path d="M318.69 404.8c48.51 0 87.97-39.46 87.97-87.97s-39.46-87.97-87.97-87.97-87.97 39.46-87.97 87.97c0 48.5 39.46 87.97 87.97 87.97z m0-119.95c17.63 0 31.97 14.34 31.97 31.97s-14.34 31.97-31.97 31.97-31.97-14.34-31.97-31.97 14.34-31.97 31.97-31.97z" fill="#d81e06" p-id="22502"></path></svg>