<?xml version="1.0" standalone="no"?><!DOCTYPE svg PUBLIC "-//W3C//DTD SVG 1.1//EN" "http://www.w3.org/Graphics/SVG/1.1/DTD/svg11.dtd"><svg t="1692445074834" class="icon" viewBox="0 0 1024 1024" version="1.1" xmlns="http://www.w3.org/2000/svg" p-id="44971" xmlns:xlink="http://www.w3.org/1999/xlink" width="200" height="200"><path d="M939.74 803.39C914.88 666 821.06 552.51 695.48 500.05a241.61 241.61 0 0 0 85.34-184.54c0-133.78-108.39-242.17-242.17-242.17S296.48 181.73 296.48 315.51A241.6 241.6 0 0 0 381.75 500c-125.63 52.42-219.47 165.9-244.42 303.28-6.84 38.24 22.25 73.36 61.07 73.36l680.26 0.12a62.15 62.15 0 0 0 61.08-73.37zM538.65 180.26c74.58 0 135.25 60.68 135.25 135.25s-60.67 135.25-135.25 135.25S403.4 390.09 403.4 315.51s60.68-135.25 135.25-135.25zM237.34 783.92a316.7 316.7 0 0 1 98.27-148.34 314.26 314.26 0 0 1 405.84 0A315.89 315.89 0 0 1 839.73 784z" fill="#1296db" p-id="44972"></path><path d="M467.04 676.55h143.01q35.75 0 35.75 35.75t-35.75 35.75H467.04q-35.75 0-35.75-35.75t35.75-35.75z" fill="#1296db" p-id="44973"></path></svg>