<?xml version="1.0" standalone="no"?><!DOCTYPE svg PUBLIC "-//W3C//DTD SVG 1.1//EN" "http://www.w3.org/Graphics/SVG/1.1/DTD/svg11.dtd"><svg t="1687855805674" class="icon" viewBox="0 0 1024 1024" version="1.1" xmlns="http://www.w3.org/2000/svg" p-id="4100" xmlns:xlink="http://www.w3.org/1999/xlink" width="500" height="500"><path d="M521.6 158.08a111.36 111.36 0 0 1 111.36 111.36V480l96 96V269.44a206.72 206.72 0 0 0-394.24-87.68L411.52 256a110.72 110.72 0 0 1 110.08-97.92zM864 846.08l-135.04-135.04-96-96-222.08-222.08-96-96-135.04-134.4L112 230.4l202.88 202.24v306.56a206.72 206.72 0 0 0 394.24 87.68l87.04 87.04z m-341.76 4.48a111.36 111.36 0 0 1-111.36-111.36V528.64l221.44 221.44a110.72 110.72 0 0 1-110.72 100.48z" fill="#1296db" p-id="4101"></path></svg>