<?xml version="1.0" standalone="no"?><!DOCTYPE svg PUBLIC "-//W3C//DTD SVG 1.1//EN" "http://www.w3.org/Graphics/SVG/1.1/DTD/svg11.dtd"><svg t="1688023517300" class="icon" viewBox="0 0 1024 1024" version="1.1" xmlns="http://www.w3.org/2000/svg" p-id="2398" xmlns:xlink="http://www.w3.org/1999/xlink" width="500" height="500"><path d="M509.866667 317.866667H896v388.266666H509.866667V317.866667z" fill="#1296db" p-id="2399"></path><path d="M889.6 326.4v373.333333H516.266667V326.4h373.333333m14.933333-14.933333H503.466667v401.066666h401.066666V311.466667z" fill="#1296db" p-id="2400"></path><path d="M731.733333 426.666667c0 32 25.6 57.6 57.6 57.6 32 0 57.6-25.6 57.6-57.6 0-32-25.6-57.6-57.6-57.6-32 0-57.6 25.6-57.6 57.6zM795.733333 597.333333c-42.666667 0-78.933333-19.2-89.6-42.666666H704c0-32-42.666667-57.6-93.866667-57.6s-93.866667 25.6-93.866666 57.6v142.933333h373.333333V554.666667h-2.133333c-10.666667 25.6-46.933333 42.666667-91.733334 42.666666z" fill="#1296db" p-id="2401"></path><path d="M0 85.333333v853.333334c0 46.933333 38.4 85.333333 85.333333 85.333333h853.333334c46.933333 0 85.333333-38.4 85.333333-85.333333V85.333333c0-46.933333-38.4-85.333333-85.333333-85.333333H85.333333C38.4 0 0 38.4 0 85.333333z m917.333333 896H106.666667c-36.266667 0-64-27.733333-64-64V106.666667c0-36.266667 27.733333-64 64-64h810.666666c36.266667 0 64 27.733333 64 64v810.666666c0 36.266667-27.733333 64-64 64z" fill="#1296db" p-id="2402"></path><path d="M234.666667 403.2c0 59.733333-19.2 89.6-57.6 89.6-38.4 0-57.6-29.866667-57.6-87.466667 0-59.733333 19.2-89.6 57.6-89.6 38.4 0 57.6 27.733333 57.6 87.466667z m-23.466667-2.133333c0-25.6-2.133333-42.666667-6.4-53.333334s-12.8-14.933333-25.6-14.933333-21.333333 6.4-25.6 17.066667-8.533333 29.866667-8.533333 57.6c0 23.466667 2.133333 38.4 8.533333 49.066666s12.8 14.933333 25.6 14.933334 21.333333-6.4 25.6-17.066667 6.4-27.733333 6.4-53.333333zM347.733333 539.733333v170.666667h-21.333333v-147.2c-8.533333 8.533333-23.466667 17.066667-44.8 29.866667v-25.6c14.933333-8.533333 29.866667-17.066667 42.666667-27.733334h23.466666zM120.277333 697.770667l221.866667-384.277334 18.474667 10.666667-221.866667 384.277333z" p-id="2403" fill="#1296db"></path></svg>