<?xml version="1.0" standalone="no"?><!DOCTYPE svg PUBLIC "-//W3C//DTD SVG 1.1//EN" "http://www.w3.org/Graphics/SVG/1.1/DTD/svg11.dtd"><svg t="1688023787255" class="icon" viewBox="0 0 1024 1024" version="1.1" xmlns="http://www.w3.org/2000/svg" p-id="2664" xmlns:xlink="http://www.w3.org/1999/xlink" width="500" height="500"><path d="M668.514123 837.694308v75.005384h75.315067v-75.005384z m180.669449 73.828586h75.315067v-75.315067h-75.129257z m-90.303756-164.132342v75.25313h75.315067v-75.25313z m90.365693 0v75.25313h75.315067v-75.25313z m90.303756 73.766649h75.315067v-75.315067h-75.191193z m-271.035142-164.132342v75.315067h75.315067v-75.315067z m180.669449 0v75.315067h75.315067v-75.315067z m-90.303756-90.427629v75.315067h75.315067V566.659167z m180.607512 75.25313h75.315067V566.659167h-75.129256zM668.514123 476.293474v75.129256h75.315067V476.293474z m180.669449 0v75.25313h75.315067V476.293474z m-90.117946-90.05601v75.06732h75.315067V386.237464z m180.607513 0v75.005384h75.315066V386.237464z m-271.159016-90.551503v75.253131h75.315067V295.685961z m180.669449 0v75.191194h75.315067V295.685961z m0-90.365692v75.62475h75.315067V205.320269z m-90.179882 75.62475h75.25313V205.320269h-75.25313z m180.669449 0h75.315066V205.320269h-75.315066z m-271.159016-90.675376h75.315067V115.016512h-75.315067z m180.731386 0h75.315067V115.016512h-75.191194z" fill="#1296db" p-id="2665"></path><path d="M545.569709 854.045606H151.032722a85.410754 85.410754 0 0 1-85.534627-85.348818V256.66582A85.410754 85.410754 0 0 1 151.032722 171.378939h394.536987v-56.919857H151.032722A142.454485 142.454485 0 0 0 8.578237 256.66582v512.030968a142.454485 142.454485 0 0 0 142.454485 142.454485h394.536987z" fill="#1296db" p-id="2666"></path><path d="M545.569709 569.508256L337.152604 361.958265a15.050626 15.050626 0 0 0-20.686869-0.433557l-175.90032 159.734834a14.988689 14.988689 0 0 0-4.954939 11.396358v235.359584a13.192524 13.192524 0 0 0 13.192524 13.192524H545.569709z" fill="#1296db" p-id="2667"></path><path d="M577.467126 0h56.919858v1024h-56.919858z" fill="#1296db" p-id="2668"></path></svg>