<?xml version="1.0" standalone="no"?><!DOCTYPE svg PUBLIC "-//W3C//DTD SVG 1.1//EN" "http://www.w3.org/Graphics/SVG/1.1/DTD/svg11.dtd"><svg t="1692443253475" class="icon" viewBox="0 0 1024 1024" version="1.1" xmlns="http://www.w3.org/2000/svg" p-id="13246" xmlns:xlink="http://www.w3.org/1999/xlink" width="200" height="200"><path d="M889.270461 1023.99267H134.782512A133.399706 133.399706 0 0 1 0.016825 889.2603V134.772351A133.433023 133.433023 0 0 1 134.782512 0.006663h754.487949a133.433023 133.433023 0 0 1 134.699055 134.765688v754.487949c0 75.462122-61.935578 134.732371-134.699055 134.73237zM134.782512 53.912938c-45.810339 0-80.892729 35.049074-80.892729 80.859413v754.487949c0 45.810339 35.08239 80.826096 80.892729 80.826095h754.487949c45.810339 0 80.826096-35.015757 80.826096-80.826095V134.772351c0-45.810339-35.015757-80.859412-80.826096-80.859413H134.782512z" fill="#1296db" p-id="13247"></path><path d="M404.247254 525.476236h-86.29002v-29.651783h86.29002v29.651783z m142.728357-26.953138H460.785541v29.6851h86.19007v-29.6851z m-288.288626 0H175.19556v29.6851h86.223387v-29.6851h-2.731962z m431.150249 0h-86.223386v29.6851h86.223386v-29.6851z m142.828307 0h-86.223386v29.6851h86.223386v-29.6851zM175.19556 328.77497L199.383419 366.489373s64.66754-53.872958 134.765687-40.413048c67.332869 18.857201 118.573815 115.875169 126.636435 142.79499h48.542301c-2.731962-29.651783-59.270249-156.254901-159.02018-183.208038-88.888715-26.953137-175.112102 43.111693-175.112102 43.111693z m673.59522 366.449393l-24.221175-37.714402s-64.66754 53.872958-134.765687 40.413048c-67.332869-18.823885-118.573815-115.875169-126.636435-142.794991h-48.5423c2.731962 29.651783 59.336882 156.254901 159.020179 183.241355 86.256703 26.953137 175.145419-43.14501 175.145418-43.14501z" fill="#1296db" p-id="13248"></path></svg>