<?xml version="1.0" standalone="no"?><!DOCTYPE svg PUBLIC "-//W3C//DTD SVG 1.1//EN" "http://www.w3.org/Graphics/SVG/1.1/DTD/svg11.dtd"><svg t="1692443086889" class="icon" viewBox="0 0 1024 1024" version="1.1" xmlns="http://www.w3.org/2000/svg" p-id="7933" xmlns:xlink="http://www.w3.org/1999/xlink" width="200" height="200"><path d="M829.9 127.5H193.3c-71.3 0-129.2 58-129.2 129.2v512c0 71.3 58 129.2 129.2 129.2h636.6c71.3 0 129.2-58 129.2-129.2v-512c0.1-71.3-57.9-129.2-129.2-129.2z m63.8 641.2c0 35.2-28.6 63.7-63.7 63.7H193.3c-35.2 0-63.7-28.6-63.7-63.7v-512c0-35.2 28.6-63.7 63.7-63.7h636.6c35.2 0 63.7 28.6 63.7 63.7v512h0.1z" p-id="7934" fill="#1296db"></path><path d="M383.7 240.2c-4.6-10.4-15-17.1-26.4-17.1-11.3 0.2-21.6 6.9-26.4 17.1L165.6 586.5c-6.9 14.7-0.5 32.2 14.2 39.1s32.2 0.5 39.1-14.2l48.9-106.6h161.4c4.2-0.2 8.4-1.2 12.2-2.9l51.4 109.6c4.7 10.3 15 17 26.4 17.1 4.4 0 8.8-1 12.7-2.9 14.7-6.8 21.1-24.3 14.3-39 0-0.1 0-0.1-0.1-0.2L383.7 240.2z m-87 207.9l59.7-126.2 59.2 126.2H296.7zM843.8 648.9h-12.1c-4.8 0-9-3-10.8-7.4l-2.1-5.1c-2-4.3-1.1-9.5 2.3-12.8l8.6-8.6c4.5-4.5 4.5-11.8 0-16.2l-16.3-16.2c-4.5-4.5-11.8-4.5-16.3 0l-8.7 8.5c-3.4 3.4-8.5 4.3-12.9 2.3-1.7-0.7-3.3-1.4-5.1-2.1-4.5-1.7-7.4-5.9-7.4-10.8v-12.1c0-6.4-5.2-11.5-11.5-11.5h-23c-6.4 0-11.5 5.2-11.5 11.5v12.1c0 4.8-3 9-7.4 10.8-1.7 0.6-3.4 1.4-5.1 2.1-4.3 1.9-9.5 1.1-12.9-2.3l-8.6-8.6c-4.5-4.5-11.8-4.5-16.3 0l-16.3 16.2c-4.5 4.5-4.5 11.8 0 16.2l8.6 8.6c3.4 3.4 4.3 8.4 2.3 12.8-0.7 1.7-1.4 3.3-2.1 5.1-1.7 4.5-5.9 7.4-10.8 7.4h-12.1c-6.4 0-11.5 5.2-11.5 11.5v23.1c0 6.4 5.2 11.5 11.5 11.5h12.1c4.8 0 9 3 10.8 7.4l2.1 5.1c2 4.3 1.1 9.5-2.3 12.8l-8.7 8.7c-4.5 4.5-4.5 11.8 0 16.2l16.3 16.2c4.5 4.5 11.8 4.5 16.3 0l8.6-8.6c3.4-3.4 8.5-4.3 12.9-2.3 1.7 0.7 3.3 1.4 5.1 2.1 4.5 1.7 7.4 5.9 7.4 10.8v12.1c0 6.4 5.2 11.5 11.5 11.5h23c6.4 0 11.5-5.2 11.5-11.5v-12.1c0-4.8 3-9 7.4-10.8 1.7-0.6 3.4-1.4 5.1-2.1 4.3-1.9 9.5-1.1 12.9 2.3l8.6 8.6c4.5 4.5 11.8 4.5 16.3 0l16.3-16.2c4.5-4.5 4.5-11.8 0-16.2l-8.6-8.6c-3.4-3.4-4.3-8.4-2.3-12.8 0.7-1.7 1.4-3.3 2.1-5.1 1.7-4.5 5.9-7.4 10.8-7.4h12.1c6.4 0 11.5-5.2 11.5-11.5v-23c0.2-6.4-4.9-11.6-11.3-11.6z m-103.7 63.3c-22.3 0-40.3-18-40.3-40.3s18.1-40.3 40.3-40.3c22.3 0 40.3 18 40.3 40.3s-18 40.3-40.3 40.3z" p-id="7935" fill="#1296db"></path></svg>