<?xml version="1.0" standalone="no"?><!DOCTYPE svg PUBLIC "-//W3C//DTD SVG 1.1//EN" "http://www.w3.org/Graphics/SVG/1.1/DTD/svg11.dtd"><svg t="1692443662952" class="icon" viewBox="0 0 1024 1024" version="1.1" xmlns="http://www.w3.org/2000/svg" p-id="24335" xmlns:xlink="http://www.w3.org/1999/xlink" width="200" height="200"><path d="M512 142.222222c204.231111 0 369.777778 165.546667 369.777778 369.777778s-165.546667 369.777778-369.777778 369.777778S142.222222 716.231111 142.222222 512 307.768889 142.222222 512 142.222222z m-28.444444 639.914667l-47.160889 33.564444a312.035556 312.035556 0 0 0 47.160889 7.907556v-41.472z m56.888888-581.745778v623.217778C699.960889 809.244444 824.888889 675.214222 824.888889 512S699.932444 214.755556 540.444444 200.391111z m-56.888888 494.990222l-124.728889 89.514667c11.662222 6.542222 23.808 12.401778 36.352 17.464889L483.555556 739.527111v-44.145778z m0-88.803555l-185.856 133.404444c9.386667 8.817778 19.342222 17.066667 29.752888 24.718222L483.555556 652.629333v-46.051555z m0-94.464l-235.064889 168.675555c7.594667 11.832889 15.957333 23.096889 25.031111 33.763556L483.555556 563.825778v-51.712z m0-94.464L214.897778 610.417778c4.551111 13.767111 10.040889 27.107556 16.384 39.964444L483.555556 469.333333v-51.712z m0-94.492445l-284.103112 203.861334c0.768 16.213333 2.759111 32.056889 5.916445 47.502222L483.555556 374.869333v-51.712z m0-94.492444l-271.786667 194.986667a311.608889 311.608889 0 0 0-11.377778 59.875555L483.555556 280.376889V228.664889z m-24.689778-25.059556a313.230222 313.230222 0 0 0-222.037334 159.345778z" fill="#1296db" p-id="24336"></path></svg>