<?xml version="1.0" standalone="no"?><!DOCTYPE svg PUBLIC "-//W3C//DTD SVG 1.1//EN" "http://www.w3.org/Graphics/SVG/1.1/DTD/svg11.dtd"><svg t="1687938825280" class="icon" viewBox="0 0 1024 1024" version="1.1" xmlns="http://www.w3.org/2000/svg" p-id="15368" xmlns:xlink="http://www.w3.org/1999/xlink" width="500" height="500"><path d="M919.68 948.48H104.32a96.64 96.64 0 0 1-96.64-96V167.04a96.64 96.64 0 0 1 96.64-96H384a96 96 0 0 1 72.96 33.28l56.96 64a29.44 29.44 0 0 0 24.32 11.52l379.52-3.84a96.64 96.64 0 0 1 96.64 96v576a96.64 96.64 0 0 1-94.72 100.48zM104.32 135.04a32 32 0 0 0-32.64 32v685.44a32 32 0 0 0 32.64 32h815.36a32 32 0 0 0 32.64-32v-576a32.64 32.64 0 0 0-32.64-32l-378.88 3.84a98.56 98.56 0 0 1-73.6-35.84l-56.32-64A33.28 33.28 0 0 0 384 135.04z" fill="#1296db" p-id="15369"></path><path d="M501.76 819.84a69.12 69.12 0 0 1-48-19.2l-192-192A33.92 33.92 0 0 1 256 576a32 32 0 0 1 30.08-19.84h85.76l3.2-134.4a96 96 0 0 1 96-96h70.4A96 96 0 0 1 640 419.84V554.24h97.92A32 32 0 0 1 768 576a32.64 32.64 0 0 1-8.32 35.2l-213.76 192a64 64 0 0 1-44.16 16.64zM362.24 618.24L499.2 755.2l154.88-136.96H640a64 64 0 0 1-64-67.2v-128a32 32 0 0 0-32-32H471.04a32 32 0 0 0-32 32v128a64 64 0 0 1-67.2 67.2z" fill="#1296db" p-id="15370"></path></svg>