<?xml version="1.0" standalone="no"?><!DOCTYPE svg PUBLIC "-//W3C//DTD SVG 1.1//EN" "http://www.w3.org/Graphics/SVG/1.1/DTD/svg11.dtd"><svg t="1686224929134" class="icon" viewBox="0 0 1024 1024" version="1.1" xmlns="http://www.w3.org/2000/svg" p-id="5902" xmlns:xlink="http://www.w3.org/1999/xlink" width="200" height="200"><path d="M663.9 735.1H278.1c-67.4 0-122.2-54.8-122.2-122.2V370.6c0-67.4 54.8-122.2 122.2-122.2h385.8c67.4 0 122.2 54.8 122.2 122.2V613c0 67.3-54.8 122.1-122.2 122.1zM278.1 288.7c-45.2 0-81.9 36.7-81.9 81.9V613c0 45.1 36.7 81.9 81.9 81.9h385.8c45.2 0 81.9-36.7 81.9-81.9V370.6c0-45.1-36.7-81.9-81.9-81.9H278.1z" fill="#828282" p-id="5903"></path><path d="M896.5 634.4l-8.1-1.7L757.8 575l16.3-36.8 123.6 54.6c0.9-1.4 2-3.9 2-7.4V398.2c0-3.5-1.1-6-2-7.4l-123.6 54.6-16.3-36.8 138.7-59.4c24 0 43.5 22 43.5 49v187.2c0 27-19.5 49-43.5 49zM540.9 520.5L434.3 582c-22.1 12.8-49.8-3.2-49.8-28.8v-123c0-25.6 27.7-41.5 49.8-28.8L540.9 463c22.1 12.8 22.1 44.7 0 57.5z" fill="#828282" p-id="5904"></path></svg>