<?xml version="1.0" standalone="no"?><!DOCTYPE svg PUBLIC "-//W3C//DTD SVG 1.1//EN" "http://www.w3.org/Graphics/SVG/1.1/DTD/svg11.dtd"><svg t="1686813546238" class="icon" viewBox="0 0 1024 1024" version="1.1" xmlns="http://www.w3.org/2000/svg" p-id="3961" width="500" height="500" xmlns:xlink="http://www.w3.org/1999/xlink"><path d="M970.88 803.2V375.04a98.56 98.56 0 0 0-97.92-97.92h-152.32L696.32 192a64 64 0 0 0-64-43.52H393.6a64 64 0 0 0-64 43.52l-26.24 84.48H151.04A97.92 97.92 0 0 0 53.12 375.04v428.8a97.92 97.92 0 0 0 97.92 97.92h721.92a98.56 98.56 0 0 0 97.92-98.56z m-64 0a33.92 33.92 0 0 1-33.92 33.92H151.04a33.92 33.92 0 0 1-33.92-33.92V375.04a33.92 33.92 0 0 1 33.92-33.92h176.64A32 32 0 0 0 359.04 320L384 211.2a14.08 14.08 0 0 1 7.04 0h243.84L665.6 320a32 32 0 0 0 30.72 23.68h176.64a33.92 33.92 0 0 1 33.92 33.92z" fill="#1296db" p-id="3962"></path><path d="M284.16 423.04H209.28a16 16 0 0 0 0 32h74.88a16 16 0 0 0 0-32zM512 384a188.16 188.16 0 1 0 188.16 192A188.8 188.8 0 0 0 512 384z m0 345.6A156.16 156.16 0 1 1 668.16 576 156.8 156.8 0 0 1 512 729.6z" fill="#1296db" p-id="3963"></path></svg>