<?xml version="1.0" standalone="no"?><!DOCTYPE svg PUBLIC "-//W3C//DTD SVG 1.1//EN" "http://www.w3.org/Graphics/SVG/1.1/DTD/svg11.dtd"><svg t="1692442294130" class="icon" viewBox="0 0 1024 1024" version="1.1" xmlns="http://www.w3.org/2000/svg" p-id="4846" xmlns:xlink="http://www.w3.org/1999/xlink" width="200" height="200"><path d="M936.96 72.704H87.04c-17.92 0-31.744 14.336-31.744 31.744v614.4c0 17.92 14.336 31.744 31.744 31.744h849.92c17.92 0 31.744-14.336 31.744-31.744v-614.4c0-17.408-13.824-31.232-31.744-31.744z m-53.248 436.224h-190.464c-11.776 0-23.04-5.632-27.648-13.824l-34.304-56.32-70.656 172.032c-10.752 25.6-55.296 22.016-59.904-4.608l-50.688-301.056-76.8 186.368c-3.584 10.24-15.36 16.896-29.184 17.408h-204.8v-51.2h181.76l112.128-270.848c10.752-25.6 55.296-22.016 59.904 4.608l50.688 300.032 52.224-127.488c8.704-21.504 45.056-23.552 57.344-3.072l58.88 96.768h171.52v51.2zM352.256 880.128h320c17.92 0 31.744-14.336 31.744-31.744s-14.336-31.744-31.744-31.744H352.256c-17.92 0-31.744 14.336-31.744 31.744s13.824 31.744 31.744 31.744z" fill="#1296db" p-id="4847"></path></svg>