<?xml version="1.0" standalone="no"?><!DOCTYPE svg PUBLIC "-//W3C//DTD SVG 1.1//EN" "http://www.w3.org/Graphics/SVG/1.1/DTD/svg11.dtd"><svg t="1687937646482" class="icon" viewBox="0 0 1024 1024" version="1.1" xmlns="http://www.w3.org/2000/svg" p-id="13404" xmlns:xlink="http://www.w3.org/1999/xlink" width="500" height="500"><path d="M66.381753 518.146459V76.216086h885.090036v278.37311c0 196.129806-0.395832 280.219505-1.339928 284.617911-2.347947 10.952989-11.555342 18.463962-22.631261 18.463961-9.12995 0-16.433172-4.629513-20.750444-13.153421-1.816893-3.589532-1.991453-26.57114-1.991453-262.761104V122.929172H113.094838v790.4063l259.073229 0.322074c238.762872 0.29503 259.362113 0.480653 262.761105 2.362699 8.528826 4.72048 12.907563 11.991741 12.907563 21.43393 0 9.570036-5.621551 18.183683-13.909436 21.315919-2.409412 0.909676-89.217076 1.306737-285.503001 1.306737H66.381753z m764.159692 440.077829c-6.847155-2.606098-84.0897-50.892677-88.666353-55.428763-5.932562-5.878473-8.457527-12.248663-8.968912-22.622656-0.408125-8.26084-0.08605-9.920384 3.081834-15.958665 4.572965-8.71199 11.790137-14.246262 21.089729-16.166415l7.120058-1.470233-23.306142-49.821964c-20.67177-44.189349-23.377441-50.69599-23.928163-57.571419-0.740034-9.212312 1.70011-16.795813 7.547851-23.454886 11.309484-12.882977 33.301513-11.911837 45.19491 1.993911 2.27296 2.658958 7.386814 11.946257 11.363573 20.639808 3.975529 8.69478 7.696595 16.320077 8.268216 16.945786 0.62448 0.685945 1.906631 0.387227 3.218285-0.747409 5.027803-4.350463 15.078492-5.855116 22.299352-3.337527 3.605513 1.257565 4.250891 1.028917 8.85213-3.128547 2.729028-2.465959 6.35298-5.011822 8.05186-5.65843 5.626468-2.138968 15.439904-1.335011 22.21576 1.819351 5.335126 2.484399 6.608672 2.694607 7.781417 1.280922 2.111923-2.544634 9.71878-4.689748 16.12339-4.54715 7.6548 0.170872 16.107409 4.355381 21.67856 10.731717 4.91225 5.621551 42.843275 85.406271 47.290852 99.470598 2.888836 9.136096 4.123044 28.439664 2.402036 37.585594-2.024643 10.766137-6.123102 20.299294-11.045186 25.688509-3.893167 4.263184-10.846041 7.906804-47.552692 24.916514-46.237349 21.426555-50.121911 22.643553-60.112365 18.841354z m53.224644-33.251112c24.504701-11.352509 42.390896-20.360759 44.020936-22.170276 6.07516-6.748812 8.928346-29.992259 5.314228-43.311635-2.421705-8.928346-42.617085-94.019918-46.120566-97.637724-3.642391-3.761633-11.267688-4.77211-12.465018-1.653397-0.3651 0.950242 2.419246 8.386228 6.184566 16.525369 3.76655 8.137911 6.848384 15.860322 6.848384 17.160912 0 1.299361-1.146929 3.820639-2.548321 5.601882-2.741321 3.485042-7.916639 4.302521-12.319962 1.947198-1.358367-0.726511-6.05795-8.924658-10.747697-18.746698-5.708831-11.957321-9.59831-18.51928-12.350694-20.835266-5.086809-4.280394-10.429311-4.47831-13.046473-0.484341-1.800912 2.748696-1.487443 3.770238 6.10835 19.975991 4.402094 9.394247 8.010065 17.744826 8.014982 18.558617 0.047942 6.606214-7.316744 11.535673-13.443534 8.998415-2.901128-1.202247-4.854473-4.056663-9.834334-14.379025-3.417431-7.084408-6.21407-13.308312-6.214069-13.83199 0-2.495462-7.572437-10.982492-10.804245-12.108524-4.577882-1.59685-8.998415 0.366329-10.509215 4.667621-0.876485 2.496691 0.730199 6.956562 8.892696 24.674343 5.638761 12.241287 9.96218 23.271721 9.96218 25.419294 0 4.343088-2.458583 7.301993-7.019255 8.446464-7.732245 1.941052-7.665863 2.048-33.399856-52.941907-20.309128-43.397685-24.701388-51.890862-27.806579-53.774136-5.427323-3.293273-10.03102-2.859333-14.23151 1.342386-6.021071 6.021071-5.292101 8.857047 11.327923 44.076255a109599.525186 109599.525186 0 0 1 30.732293 65.194257c9.053733 19.226122 15.81115 35.118406 15.81115 37.186074 0 3.947256-3.668206 8.446463-7.068427 8.670194-5.234324 0.344202-7.486387-0.7806-14.045888-7.024172-5.845282-5.562545-7.708888-6.639405-11.493877-6.639405-3.497335 0-5.459285 0.942867-8.69601 4.179592-5.53673 5.53673-5.841594 12.387573-0.799039 17.952576 4.75613 5.249076 83.730747 54.083918 87.464105 54.083918 1.653397 0 21.581445-8.605042 44.282776-19.122862zM190.606598 757.55102c27.397224-27.552115 85.122305-85.689008 128.279049-129.193642 64.006761-64.525522 78.74351-78.79637 79.974031-77.445378 0.829772 0.909676 14.867054 24.362103 31.193278 52.115822s30.40776 51.450776 31.29162 52.65917c1.438271 1.966867 14.262242-14.143001 122.015808-153.285302 66.225633-85.516908 120.74472-155.12801 121.155304-154.691611 1.101445 1.171515 68.708802 206.150992 68.708802 208.318233 0 1.024-3.9743 4.032077-8.912365 6.743894-35.760096 19.644082-60.023856 52.042065-68.773955 91.825633-1.990223 9.046358-2.554468 17.507573-3.096585 46.405762l-0.663818 35.342137-27.809037 0.020898c-41.066948 0.031962-57.025613 2.302463-78.229666 11.128778-21.93794 9.133637-47.630137 30.749503-60.167683 50.622233l-6.011237 9.527011H140.794468l49.813359-50.093638zM302.405762 361.932984c-20.969258-5.507227-39.853637-20.934838-48.907371-39.95321-6.349292-13.335357-8.098574-21.15611-7.954746-35.554804 0.204062-20.449268 7.728557-38.245724 22.323937-52.807914 19.044187-18.996245 46.792989-26.490007 73.142857-19.75103 14.224134 3.638703 23.298766 8.956619 34.565225 20.257499 19.115486 19.173263 26.448211 43.698862 20.897959 69.897527-5.81455 27.44025-29.290334 51.641316-56.262223 58.000441-9.680672 2.282795-28.94982 2.237311-37.805638-0.088509z" fill="#1296db" p-id="13405"></path></svg>