<?xml version="1.0" standalone="no"?><!DOCTYPE svg PUBLIC "-//W3C//DTD SVG 1.1//EN" "http://www.w3.org/Graphics/SVG/1.1/DTD/svg11.dtd"><svg t="1692442267848" class="icon" viewBox="0 0 1024 1024" version="1.1" xmlns="http://www.w3.org/2000/svg" p-id="3781" xmlns:xlink="http://www.w3.org/1999/xlink" width="200" height="200"><path d="M922.739739 222.068476L558.310033 12.393403a93.155307 93.155307 0 0 0-92.85278 0L101.260261 222.068476c-28.856503 16.522675-46.542747 47.473602-46.542746 80.518952v418.884719c0 33.04535 17.918957 63.996277 46.542746 80.518952l364.429706 209.675073a93.248393 93.248393 0 0 0 92.620066 0l364.429706-209.675073c28.856503-16.522675 46.542747-47.473602 46.542746-80.518952V302.587428c0-33.04535-17.686244-63.996277-46.542746-80.518952zM512 93.145068l326.730081 188.032696L512 468.977747 185.269919 280.94505 512 93.145068zM147.803008 368.445414l316.956104 182.214853v353.026733L147.803008 721.472147V368.445414z m411.670594 535.241586V550.660267l316.956104-182.214853V721.472147l-316.956104 182.214853z" fill="#1296db" p-id="3782"></path></svg>