<?xml version="1.0" standalone="no"?><!DOCTYPE svg PUBLIC "-//W3C//DTD SVG 1.1//EN" "http://www.w3.org/Graphics/SVG/1.1/DTD/svg11.dtd"><svg t="1687936626568" class="icon" viewBox="0 0 1024 1024" version="1.1" xmlns="http://www.w3.org/2000/svg" p-id="5324" xmlns:xlink="http://www.w3.org/1999/xlink" width="500" height="500"><path d="M749.63 330.26H455.79L430.6 289.4c-5.32-8.63-14.55-13.78-24.69-13.78h-95.02c-15.99 0-29 13.01-29 29v344.4c0 15.99 13.01 29 29 29h438.74c15.99 0 29-13.01 29-29V359.26c0-16-13.01-29-29-29z m-350.97-12.64l25.18 40.85c5.32 8.63 14.55 13.78 24.69 13.78h288.11v33.31H323.89v-87.95h74.77z m-74.77 318.4V447.57h412.74v188.45H323.89z" fill="#1296db" p-id="5325"></path><path d="M852.93 77.15H207.6c-42.46 0-77 34.54-77 77v645.33c0 42.46 34.54 77 77 77h645.33c42.46 0 77-34.54 77-77V154.15c0-42.46-34.54-77-77-77z m35 722.34c0 19.3-15.7 35-35 35H207.6c-19.3 0-35-15.7-35-35V154.15c0-19.3 15.7-35 35-35h645.33c19.3 0 35 15.7 35 35v645.34z" fill="#1296db" p-id="5326"></path></svg>