<?xml version="1.0" standalone="no"?><!DOCTYPE svg PUBLIC "-//W3C//DTD SVG 1.1//EN" "http://www.w3.org/Graphics/SVG/1.1/DTD/svg11.dtd"><svg t="1692442232149" class="icon" viewBox="0 0 1024 1024" version="1.1" xmlns="http://www.w3.org/2000/svg" p-id="1567" xmlns:xlink="http://www.w3.org/1999/xlink" width="200" height="200"><path d="M492.212222 391.516591L118.33905 233.468876l374.019444-146.126486 375.92099 146.126486-375.92099 158.047715z m-49.147647 454.762007L91.132317 668.191514v-347.397801l351.932258 154.902851v370.582034z m471.437101-695.453831L530.243139 6.7461a110.874751 110.874751 0 0 0-75.769289 0L69.191403 151.190449c-20.624459 8.849502-37.299553 22.233459-49.87901 39.932463A103.707386 103.707386 0 0 0 0.004389 252.411198v415.414635c0 20.770732 5.265819 40.078736 15.724321 57.265785 10.751048 17.479595 26.036551 30.936688 44.978873 39.713054l383.965992 191.982995a105.901477 105.901477 0 0 0 95.15043 0l87.032291-44.174373a29.254552 29.254552 0 0 0 16.016867-26.109687v-51.634284a21.940914 21.940914 0 0 0-30.936688-20.039368l-70.430334 31.52178V475.696564l344.545483-148.978805 0.21941 63.336105a29.254552 29.254552 0 0 0 29.547097 29.181415l39.566781-0.365682a29.254552 29.254552 0 0 0 29.035143-29.254551c0-45.710237 0-91.493611 0.146272-137.276985 0-22.526005-6.509138-43.077327-19.308004-61.215149a117.018207 117.018207 0 0 0-50.756647-40.298145z" p-id="1568" fill="#1296db"></path><path d="M894.02349 612.681003H1001.972786a21.940914 21.940914 0 0 1 21.940913 21.940913v47.392374a21.940914 21.940914 0 0 1-21.940913 21.940914h-107.949296V811.9045a21.940914 21.940914 0 0 1-21.940914 21.940914h-47.392374a21.940914 21.940914 0 0 1-21.940914-21.940914V703.955204H694.799992a21.940914 21.940914 0 0 1-21.940913-21.940914v-47.392374a21.940914 21.940914 0 0 1 21.940913-21.940913h107.949296V504.731707a21.940914 21.940914 0 0 1 21.940914-21.940914h47.392374a21.940914 21.940914 0 0 1 21.940914 21.940914v107.949296z" p-id="1569" fill="#1296db"></path></svg>