<?xml version="1.0" standalone="no"?><!DOCTYPE svg PUBLIC "-//W3C//DTD SVG 1.1//EN" "http://www.w3.org/Graphics/SVG/1.1/DTD/svg11.dtd"><svg t="1688026713323" class="icon" viewBox="0 0 1024 1024" version="1.1" xmlns="http://www.w3.org/2000/svg" p-id="2748" xmlns:xlink="http://www.w3.org/1999/xlink" width="500" height="500"><path d="M497.792 588.288l56.576-56.512 90.496 90.496-56.576 56.576 45.248 45.248-124.416 124.416a256.128 256.128 0 0 1-311.04 39.552l-107.52 107.52L0 905.088l107.52-107.52a256.128 256.128 0 0 1 39.552-311.04l124.48-124.48 45.248 45.248 56.576-56.576 90.496 90.496-56.576 56.576 90.496 90.496z m-79.168 169.728l33.92-33.92-180.992-181.056-33.92 33.92a128 128 0 0 0 180.992 181.056z m390.272-661.76L905.088 0l90.496 90.496-96.192 96.256a256.128 256.128 0 0 1-39.552 311.04L735.36 622.272 373.376 260.224 497.792 135.68a256.128 256.128 0 0 1 311.04-39.552z m-39.552 311.04a128 128 0 1 0-181.056-180.992l-33.92 33.92 180.992 180.992 33.92-33.92z" fill="#1296db" p-id="2749"></path></svg>