<?xml version="1.0" standalone="no"?><!DOCTYPE svg PUBLIC "-//W3C//DTD SVG 1.1//EN" "http://www.w3.org/Graphics/SVG/1.1/DTD/svg11.dtd"><svg t="1692443888235" class="icon" viewBox="0 0 1024 1024" version="1.1" xmlns="http://www.w3.org/2000/svg" p-id="37105" xmlns:xlink="http://www.w3.org/1999/xlink" width="200" height="200"><path d="M534.2 72.2L95 257.6l3.2 490.3 438.6 201.4L935 753.1V254L534.2 72.2z m0 69l288.9 131.2-138.3 66.3-151.9-69.5c-3.8-1-7.7-0.8-11.3 0.6L373 336.6l-138.8-64c0.1-0.2 300-131.4 300-131.4z m-99.7 228.3l99.7-47.4 96 44.6-91 43.9-104.7-41.1z m143.3 118.3l16.2-9.3 93.1-50.1v158.7l-108.7 57-0.6-156.3z m-407 211.1l-2.2-358.5 141.7 66.2 1.5 197.1c0.1 7.5 4.6 14.2 11.5 16.9l178.4 86-1.9 141.7c0-0.1-329-149.4-329-149.4z m677.9 0.5l-267.8 145-1.3-137.4L724 623.2c6.6-2.9 10.8-9.5 10.8-16.7V406.4l114-56.4v349.4z" p-id="37106" fill="#1296db"></path></svg>