<?xml version="1.0" standalone="no"?><!DOCTYPE svg PUBLIC "-//W3C//DTD SVG 1.1//EN" "http://www.w3.org/Graphics/SVG/1.1/DTD/svg11.dtd"><svg t="1692443863848" class="icon" viewBox="0 0 1024 1024" version="1.1" xmlns="http://www.w3.org/2000/svg" p-id="35893" xmlns:xlink="http://www.w3.org/1999/xlink" width="200" height="200"><path d="M0 0h1024v1024H0z" fill="#1296db" fill-opacity="0" p-id="35894"></path><path d="M486.144 233.92a53.376 53.376 0 0 1 51.776 0L746.88 350.08a53.312 53.312 0 0 1 27.456 46.528v231.36a53.312 53.312 0 0 1-27.456 46.656l-209.088 116.16a53.376 53.376 0 0 1-51.776 0L277.12 674.56a53.312 53.312 0 0 1-27.456-46.656V396.608c0-19.328 10.56-37.12 27.456-46.528l209.088-116.16zM512 307.328L326.4 410.432v203.712l185.536 103.104L697.6 614.08V410.496L512 307.328z" fill="#1296db" p-id="35895"></path><path d="M704.896 361.216a38.4 38.4 0 1 1 37.312 67.2L550.336 534.848l0.064 201.408a38.4 38.4 0 0 1-32.192 37.888L512 774.72a38.4 38.4 0 0 1-38.4-38.4V534.912L282.432 428.8a38.4 38.4 0 0 1-17.536-46.528l2.56-5.76a38.4 38.4 0 0 1 52.288-14.848l192.128 106.688 192.96-107.136zM192 25.6a38.4 38.4 0 0 1 38.4 38.4v128a38.4 38.4 0 0 1-38.4 38.4H64A38.4 38.4 0 0 1 25.6 192V64A38.4 38.4 0 0 1 64 25.6h128z m-38.4 76.8h-51.2v51.2h51.2v-51.2zM192 793.6a38.4 38.4 0 0 1 38.4 38.4v128a38.4 38.4 0 0 1-38.4 38.4H64a38.4 38.4 0 0 1-38.4-38.4v-128a38.4 38.4 0 0 1 38.4-38.4h128z m-38.4 76.8h-51.2v51.2h51.2v-51.2zM960 25.6a38.4 38.4 0 0 1 38.4 38.4v128a38.4 38.4 0 0 1-38.4 38.4h-128a38.4 38.4 0 0 1-38.4-38.4V64a38.4 38.4 0 0 1 38.4-38.4h128z m-38.4 76.8h-51.2v51.2h51.2v-51.2zM960 793.6a38.4 38.4 0 0 1 38.4 38.4v128a38.4 38.4 0 0 1-38.4 38.4h-128a38.4 38.4 0 0 1-38.4-38.4v-128a38.4 38.4 0 0 1 38.4-38.4h128z m-38.4 76.8h-51.2v51.2h51.2v-51.2zM704 89.6a38.4 38.4 0 0 1 0 76.8H320a38.4 38.4 0 1 1 0-76.8h384zM704 857.6a38.4 38.4 0 0 1 0 76.8H320a38.4 38.4 0 0 1 0-76.8h384zM166.4 704a38.4 38.4 0 1 1-76.8 0V320a38.4 38.4 0 1 1 76.8 0v384zM934.4 704a38.4 38.4 0 0 1-76.8 0V320a38.4 38.4 0 1 1 76.8 0v384z" fill="#1296db" p-id="35896"></path></svg>