<?xml version="1.0" standalone="no"?><!DOCTYPE svg PUBLIC "-//W3C//DTD SVG 1.1//EN" "http://www.w3.org/Graphics/SVG/1.1/DTD/svg11.dtd"><svg t="1692443771410" class="icon" viewBox="0 0 1024 1024" version="1.1" xmlns="http://www.w3.org/2000/svg" p-id="31405" xmlns:xlink="http://www.w3.org/1999/xlink" width="200" height="200"><path d="M515.25 928.5c-55.412 0-109.172-10.854-159.789-32.265-48.884-20.677-92.783-50.272-130.479-87.969-37.695-37.694-67.292-81.595-87.968-130.479C115.605 627.173 104.75 573.412 104.75 518s10.855-109.172 32.264-159.789c20.676-48.884 50.273-92.783 87.968-130.479 37.696-37.695 81.595-67.292 130.479-87.968C406.078 118.355 459.838 107.5 515.25 107.5s109.173 10.855 159.789 32.264c48.884 20.676 92.783 50.273 130.479 87.968 37.695 37.696 67.293 81.595 87.969 130.479C914.895 408.828 925.75 462.588 925.75 518s-10.855 109.173-32.265 159.789c-20.677 48.884-50.272 92.783-87.969 130.479-37.695 37.696-81.595 67.292-130.479 87.969C624.423 917.646 570.662 928.5 515.25 928.5z m0-796c-212.565 0-385.5 172.935-385.5 385.5s172.935 385.5 385.5 385.5 385.5-172.935 385.5-385.5-172.935-385.5-385.5-385.5z" p-id="31406" fill="#1296db"></path><path d="M126.295 529.002c-0.312 0-0.502-0.004-0.562-0.005l0.488-24.995c1.722 0.026 42.388 0.21 54.111-32.613 12.178-34.096-23.955-72.481-24.321-72.865l-18.844-19.736 27.235-1.397c27.49-1.427 70.188-11.325 74.508-28.039 6.213-24.041-5.812-61.743-10.969-74.242l-12.817-31.059 29.996 15.12c0.407 0.204 43.131 21.172 66.381 1.408 21.09-17.926 27.41-68.413 28.065-86.353l0.85-23.265 18.923 13.553c0.447 0.318 46.813 32.839 84.947 18.857 39.542-14.499 60.065-60.328 60.268-60.79l22.887 10.058c-1.002 2.281-25.12 56.08-74.548 74.204-9.708 3.56-19.591 5.006-29.229 5.007-23.81 0.002-46.165-8.819-60.971-16.391a261.217 261.217 0 0 1-3.387 19.951c-6.379 30.203-17.015 51.808-31.614 64.218-12.724 10.815-27.925 14.348-42.345 14.349-9.301 0-18.279-1.469-26.065-3.4 4.934 18.488 9.276 43.968 3.832 65.031-4.819 18.645-23.415 32.184-55.271 40.243-6.778 1.715-13.416 2.992-19.347 3.938 12.32 18.743 26.382 49.199 15.378 80.009-7.462 20.893-23.517 36.051-46.428 43.834-14.937 5.074-28.255 5.37-31.151 5.37z" p-id="31407" fill="#1296db"></path><path d="M904.705 529.002c-2.895 0-16.213-0.296-31.153-5.371-22.911-7.783-38.966-22.941-46.428-43.834-11.004-30.809 3.059-61.266 15.379-80.009-5.932-0.946-12.569-2.224-19.348-3.938-31.856-8.059-50.452-21.598-55.271-40.243-5.443-21.063-1.103-46.543 3.832-65.031-19.86 4.929-47.479 6.843-68.41-10.948-14.599-12.41-25.235-34.016-31.614-64.218a261.731 261.731 0 0 1-3.387-19.952c-20.8 10.637-56.504 23.741-90.199 11.385-49.429-18.124-73.547-71.922-74.549-74.204l22.887-10.058c0.196 0.441 20.969 46.38 60.268 60.79 38.136 13.979 84.5-18.54 84.964-18.87l18.922-13.466 0.835 23.198c0.655 17.932 6.976 68.418 28.065 86.346 23.033 19.577 65.954-1.193 66.38-1.409l30.072-15.166-12.896 31.114c-5.153 12.489-17.178 50.191-10.964 74.232 4.32 16.715 47.019 26.613 74.516 28.04l27.345 1.418-18.977 19.732c-0.351 0.366-36.482 38.752-24.306 72.848 11.725 32.828 52.394 32.643 54.112 32.613l0.487 24.995c-0.06 0.002-0.251 0.006-0.562 0.006z" p-id="31408" fill="#1296db"></path></svg>