<?xml version="1.0" standalone="no"?><!DOCTYPE svg PUBLIC "-//W3C//DTD SVG 1.1//EN" "http://www.w3.org/Graphics/SVG/1.1/DTD/svg11.dtd"><svg t="1692443833574" class="icon" viewBox="0 0 1024 1024" version="1.1" xmlns="http://www.w3.org/2000/svg" p-id="34825" xmlns:xlink="http://www.w3.org/1999/xlink" width="200" height="200"><path d="M691.427556 674.360889H332.572444a45.511111 45.511111 0 0 1-45.454222-45.511111V389.518222a45.511111 45.511111 0 0 1 45.511111-45.454222h358.798223a45.511111 45.511111 0 0 1 45.454222 45.511111v239.388445a45.511111 45.511111 0 0 1-45.511111 45.454222zM390.144 292.579556L511.886222 170.666667l121.912889 121.912889H390.144zM788.309333 387.356444L910.222222 509.098667l-121.912889 121.912889V387.356444zM235.690667 631.011556L113.777778 509.098667l121.912889-121.742223v243.655112zM633.799111 725.788444L511.886222 847.644444l-121.742222-121.912888h243.655111z" fill="#1296db" p-id="34826"></path></svg>