<?xml version="1.0" standalone="no"?><!DOCTYPE svg PUBLIC "-//W3C//DTD SVG 1.1//EN" "http://www.w3.org/Graphics/SVG/1.1/DTD/svg11.dtd"><svg t="1692443709865" class="icon" viewBox="0 0 1024 1024" version="1.1" xmlns="http://www.w3.org/2000/svg" p-id="26774" xmlns:xlink="http://www.w3.org/1999/xlink" width="200" height="200"><path d="M621.2 539.9v-44h30.9c14.4 0 26-11.7 26-26 0-14.4-11.7-26-26-26h-30.9v-60.2h30.9c14.4 0 26-11.7 26-26 0-14.4-11.7-26-26-26h-30.9v-60.2h30.9c14.4 0 26-11.7 26-26 0-14.4-11.7-26-26-26h-30.9V185c0-66.9-54.4-121.3-121.3-121.3S378.6 118.1 378.6 185v355.1C312 581.8 271.2 654.7 271.2 734c0 61.1 23.8 118.5 67 161.7 43.2 43.2 100.6 67 161.7 67 61.1 0 118.5-23.8 161.7-67 43.2-43.2 67-100.6 67-161.7 0-79.5-40.8-152.4-107.4-194.1zM499.9 923.4c-97.4 0-189.6-92.2-189.6-189.6 0-65.4 33.9-125.1 91.6-155.9 8.5-4.5 13.8-13.4 13.8-23V171.8c0-38.2 39.1-72.3 82.3-72.3s84.3 34.1 84.3 72.3v383.1c0 9.6 5.3 17.4 13.8 22 57.7 30.8 93.6 91.6 93.6 156.9-0.2 97.4-92.4 189.6-189.8 189.6z m0 0" fill="#1296db" p-id="26775"></path><path d="M521.8 618.5V181.1c0-14.4-6.7-30-21-30-14.4 0-21 14.7-21 29v433.7c0 0.9 0 1.8 0.1 2.6C432 632 385 675 385.3 738.1c0.3 65.9 53.6 119.6 119.5 119.6s119.5-53.6 119.5-119.6c0.1-60.9-43.6-112.3-102.5-119.6z m-16.9 207.9c-48.7 0-88.3-39.6-88.3-88.3 0-48.7 39.6-88.3 88.3-88.3 48.7 0 88.3 39.6 88.3 88.3 0 48.7-39.6 88.3-88.3 88.3z m0 0" fill="#1296db" p-id="26776"></path></svg>