<?xml version="1.0" standalone="no"?><!DOCTYPE svg PUBLIC "-//W3C//DTD SVG 1.1//EN" "http://www.w3.org/Graphics/SVG/1.1/DTD/svg11.dtd"><svg t="1687938522892" class="icon" viewBox="0 0 1036 1024" version="1.1" xmlns="http://www.w3.org/2000/svg" p-id="14614" xmlns:xlink="http://www.w3.org/1999/xlink" width="505.859375" height="500"><path d="M400.747662 160.780805v240.87012a30.108765 30.108765 0 0 0 46.969673 25.291362l180.65259-120.43506a30.108765 30.108765 0 0 0 0-49.980549l-180.65259-120.43506a30.108765 30.108765 0 0 0-46.969673 24.689187z" fill="#1296db" p-id="14615"></path><path d="M90.326295 541.95777V120.43506a30.108765 30.108765 0 0 1 30.108765-30.108765h782.827889a30.108765 30.108765 0 0 1 30.108765 30.108765v270.978885h90.326295V90.326295a90.326295 90.326295 0 0 0-90.326295-90.326295H90.326295a90.326295 90.326295 0 0 0-90.326295 90.326295v481.740239a90.326295 90.326295 0 0 0 90.326295 90.326295h120.43506v-90.326295H120.43506a30.108765 30.108765 0 0 1-30.108765-30.108764z" fill="#1296db" p-id="14616"></path><path d="M1022.493658 946.017395a81.594753 81.594753 0 0 0 0-12.344593v-361.30518a90.326295 90.326295 0 0 0-90.326294-90.326295h-541.95777a88.519769 88.519769 0 0 0-55.701215 19.871785 43.958797 43.958797 0 0 0-30.108765 19.26961 45.464235 45.464235 0 0 0-3.010877 44.560972v367.929108a90.326295 90.326295 0 0 0 90.326295 90.326295h541.95777a90.326295 90.326295 0 0 0 34.323992-6.623929 45.163147 45.163147 0 0 0 54.797952-71.056685z m-90.326294-343.842096v283.624567l-150.543825-100.563276-74.067562-185.771079h-94.84261l-22.581574 58.109916L462.169542 572.066534h440.190144A30.108765 30.108765 0 0 1 933.371714 602.175299z m-283.022391 94.84261l9.935892-27.097888 16.559821 44.862059z m-258.935379 206.546128v-270.978885l165.899295 110.800255-60.21753 157.769929h79.788227l24.689188-68.647984h90.326294l40.947921 27.097888 15.656558 41.550096h46.367498l48.174024 31.915291h-421.52271a30.108765 30.108765 0 0 1-28.904414-29.50659z" fill="#1296db" p-id="14617"></path></svg>