<?xml version="1.0" standalone="no"?><!DOCTYPE svg PUBLIC "-//W3C//DTD SVG 1.1//EN" "http://www.w3.org/Graphics/SVG/1.1/DTD/svg11.dtd"><svg t="1687156635978" class="icon" viewBox="0 0 1024 1024" version="1.1" xmlns="http://www.w3.org/2000/svg" p-id="6681" xmlns:xlink="http://www.w3.org/1999/xlink" width="500" height="500"><path d="M512 358.741333A153.173333 153.173333 0 0 0 358.954667 512 153.173333 153.173333 0 0 0 512 665.258667 153.173333 153.173333 0 0 0 665.002667 512 153.173333 153.173333 0 0 0 512 358.741333zM420.181333 512c0-50.773333 41.088-91.946667 91.818667-91.946667 50.688 0 91.818667 41.173333 91.818667 91.946667s-41.130667 91.946667-91.818667 91.946667A91.861333 91.861333 0 0 1 420.181333 512z" fill="#1296db" fill-opacity=".65" p-id="6682"></path><path d="M568.106667 100.394667a112.085333 112.085333 0 0 0-112.213334 0l-271.786666 157.141333A112.426667 112.426667 0 0 0 128 354.858667v314.282666c0 40.149333 21.376 77.226667 56.106667 97.322667l271.786666 157.141333c34.730667 20.053333 77.482667 20.053333 112.213334 0l271.786666-157.141333A112.426667 112.426667 0 0 0 896 669.141333V354.858667c0-40.149333-21.376-77.226667-56.106667-97.322667l-271.786666-157.141333z m-81.621334 53.077333c15.786667-9.130667 35.242667-9.130667 51.029334 0l271.786666 157.141333c15.786667 9.130667 25.472 26.026667 25.472 44.245334v314.282666c0 18.261333-9.728 35.114667-25.472 44.245334l-271.786666 157.141333c-15.786667 9.130667-35.242667 9.130667-51.029334 0l-271.786666-157.141333a51.114667 51.114667 0 0 1-25.472-44.245334V354.858667c0-18.261333 9.685333-35.114667 25.472-44.245334l271.786666-157.141333z" fill="#1296db" fill-opacity=".65" p-id="6683"></path></svg>