<?xml version="1.0" standalone="no"?><!DOCTYPE svg PUBLIC "-//W3C//DTD SVG 1.1//EN" "http://www.w3.org/Graphics/SVG/1.1/DTD/svg11.dtd"><svg t="1686807325262" class="icon" viewBox="0 0 1024 1024" version="1.1" xmlns="http://www.w3.org/2000/svg" p-id="2950" xmlns:xlink="http://www.w3.org/1999/xlink" width="200" height="200"><path d="M853.333333 184.547556v656.668444a14.222222 14.222222 0 0 1-14.222222 14.222222H184.832a14.222222 14.222222 0 0 1-14.222222-14.222222V184.547556a14.222222 14.222222 0 0 1 14.222222-14.222223h654.222222a14.222222 14.222222 0 0 1 14.222222 14.222223zM853.333333 113.777778H170.609778a56.888889 56.888889 0 0 0-56.888889 56.888889v682.723555a56.888889 56.888889 0 0 0 56.888889 56.888889h682.666666a56.888889 56.888889 0 0 0 56.945778-56.888889v-682.666666A56.888889 56.888889 0 0 0 853.333333 113.777778z" fill="#909399" p-id="2951"></path><path d="M113.720889 711.111111H910.222222v-56.888889H113.720889v56.888889z m479.004444-469.333333h1.024l-20.48 20.48a39.708444 39.708444 0 0 0 0 56.888889l32.426667 32.597333a40.391111 40.391111 0 0 0 56.888889 0L682.666667 330.808889a49.493333 49.493333 0 0 1-13.255111 35.84 48.64 48.64 0 0 1-34.986667 13.255111c-7.793778-0.056889-15.530667-1.365333-22.869333-3.868444a28.444444 28.444444 0 0 0-28.899556 6.997333l-99.555556 99.555555a28.444444 28.444444 0 0 0-6.997333 28.444445 55.921778 55.921778 0 0 1-9.500444 57.912889 47.502222 47.502222 0 0 1-34.872889 13.198222h-0.853334l20.48-20.48a39.253333 39.253333 0 0 0 11.662223-28.444444 39.822222 39.822222 0 0 0-11.662223-28.444445l-33.109333-31.118222a39.822222 39.822222 0 0 0-56.888889 0l-20.081778 20.48a48.810667 48.810667 0 0 1 13.255112-35.84 47.957333 47.957333 0 0 1 34.816-13.255111c7.850667 0 15.644444 1.365333 23.04 3.811555 2.844444 0.967111 5.859556 1.422222 8.817777 1.422223a28.444444 28.444444 0 0 0 19.626667-8.192L540.444444 342.471111a28.444444 28.444444 0 0 0 6.826667-28.444444 56.035556 56.035556 0 0 1 9.443556-58.026667 48.071111 48.071111 0 0 1 36.124444-14.222222z m0-28.444445a76.515556 76.515556 0 0 0-55.011555 21.617778 83.911111 83.911111 0 0 0-16.384 86.755556l-99.555556 99.555555a105.244444 105.244444 0 0 0-31.857778-5.233778 75.946667 75.946667 0 0 0-54.897777 21.617778 85.333333 85.333333 0 0 0-14.222223 94.151111 11.662222 11.662222 0 0 0 8.419556 6.997334h2.389333a11.946667 11.946667 0 0 0 8.135111-3.413334l42.666667-42.666666a11.491556 11.491556 0 0 1 16.327111 0l31.857778 33.564444a11.377778 11.377778 0 0 1 0 16.213333l-42.666667 42.666667a10.979556 10.979556 0 0 0-3.128889 10.353778 11.377778 11.377778 0 0 0 6.997334 8.419555c12.344889 5.063111 25.6 7.736889 38.968889 7.793778 20.48 0.455111 40.334222-7.338667 55.011555-21.617778a83.911111 83.911111 0 0 0 16.384-86.755555l99.555556-99.555556c10.24 3.413333 20.935111 5.233778 31.744 5.233778 20.48 0.512 40.334222-7.281778 55.011555-21.617778a85.333333 85.333333 0 0 0 14.222223-93.980444 11.377778 11.377778 0 0 0-8.362667-6.997333h-2.275556a11.093333 11.093333 0 0 0-8.135111 3.413333l-42.666666 42.666667a11.662222 11.662222 0 0 1-16.213334 0L593.351111 298.666667a11.491556 11.491556 0 0 1 0-16.327111l42.666667-42.666667a11.662222 11.662222 0 0 0-3.868445-18.944 105.813333 105.813333 0 0 0-39.367111-7.395556z" fill="#909399" p-id="2952"></path><path d="M206.165333 768.056889h312.888889c14.222222 0 21.333333 7.111111 21.333334 21.333333s-7.111111 21.333333-21.333334 21.333334h-312.888889c-14.222222 0-21.333333-7.111111-21.333333-21.333334s7.111111-21.333333 21.333333-21.333333zM647.111111 768.056889h170.666667c14.222222 0 21.333333 7.111111 21.333333 21.333333s-7.111111 21.333333-21.333333 21.333334h-170.666667c-14.222222 0-21.333333-7.111111-21.333333-21.333334s7.111111-21.333333 21.333333-21.333333z" fill="#909399" p-id="2953"></path></svg>