<?xml version="1.0" standalone="no"?><!DOCTYPE svg PUBLIC "-//W3C//DTD SVG 1.1//EN" "http://www.w3.org/Graphics/SVG/1.1/DTD/svg11.dtd"><svg t="1687936854560" class="icon" viewBox="0 0 1448 1024" version="1.1" xmlns="http://www.w3.org/2000/svg" p-id="12845" xmlns:xlink="http://www.w3.org/1999/xlink" width="707.03125" height="500"><path d="M598.417864 138.414539h124.548759V200.688918H598.417864v-62.274379z m62.27438 404.783466c0 17.14978-13.987409 31.13719-31.13719 31.137189H442.731916c-17.14978 0-31.13719-13.987409-31.13719-31.137189S425.582136 512.060815 442.731916 512.060815h186.823138c17.14978 0 31.13719 13.987409 31.13719 31.13719zM442.731916 698.883953h124.548759c17.14978 0 31.13719 13.987409 31.137189 31.13719 0 17.14978-13.987409 31.13719-31.137189 31.137189H442.731916c-17.14978 0-31.13719-13.987409-31.13719-31.137189 0-17.14978 13.987409-31.13719 31.13719-31.13719z m467.544364 41.110821c17.14978 0 31.13719-13.987409 31.13719-31.13719 0-17.14978-13.987409-31.13719-31.13719-31.13719-17.14978 0-31.13719 13.987409-31.13719 31.13719 0 17.14978 13.86578 31.13719 31.13719 31.13719z m-93.411569-31.13719c0-51.57097 41.840599-93.411569 93.411569-93.411569s93.411569 41.840599 93.411569 93.411569-41.840599 93.411569-93.411569 93.411569c-51.6926 0-93.411569-41.840599-93.411569-93.411569z m275.61278 30.772301c5.594964-26.880152 5.594964-54.611712 0-81.491864-22.744744-3.892149-42.327117-18.001188-53.273785-38.191709-11.189928-20.67704-12.892743-45.124599-4.865186-67.139565-19.217484-18.244447-42.083858-32.110227-67.139565-40.745932-13.500891 18.244447-34.786079 28.947856-57.409194 28.947856s-43.908303-10.703409-57.409193-28.947856c-25.055707 8.635705-47.922081 22.623114-67.139566 40.867561 7.905927 22.014966 6.081482 46.462525-4.986815 67.017936-10.825039 20.312151-30.407412 34.42119-53.152156 38.191709-5.473334 26.880152-5.473334 54.611712 0 81.491864 22.744744 3.892149 42.327117 17.879558 53.273786 38.191709 11.189928 20.67704 12.892743 45.124599 4.865185 67.139565 19.095855 18.244447 42.083858 32.231857 67.139566 40.745932 13.500891-18.244447 34.786079-28.947856 57.409193-28.947856s43.908303 10.703409 57.409194 28.947856c25.055707-8.514075 48.043711-22.379855 67.139565-40.624302-8.149186-22.136596-6.446371-46.584155 4.743556-67.261195 10.946668-20.312151 30.650671-34.42119 53.395415-38.191709z m60.936454-94.262977c3.648889 17.636299 5.473334 35.515857 5.473334 53.517045-0.12163 17.879558-1.824445 35.759116-5.473334 53.273785-4.865186 26.028745-25.420596 46.219266-51.449341 50.719563-3.892149 0.608148-7.176149 2.797482-9.122224 6.203112-1.824445 3.40563-1.946074 7.419408-0.608148 11.068298 9.122224 24.934078 2.675852 52.787267-16.541632 71.153344-25.663856 24.08267-56.192897 42.327117-89.51942 53.517045-24.447559 8.149186-51.449341 0-67.139566-20.433781-2.189334-3.040741-5.594964-4.865186-9.365482-4.986816-3.892149 0.243259-7.419408 2.189334-9.487113 5.473335-15.811854 20.433781-42.692006 28.582967-67.139565 20.43378-33.326523-11.311557-63.855565-29.556004-89.519421-53.638674-19.095855-18.244447-25.663856-46.097636-16.541632-71.031714 1.459556-3.52726 1.216296-7.541038-0.486518-11.068298-1.946074-3.40563-5.230075-5.716593-9.122224-6.203112-26.028745-4.500297-46.462525-24.812448-51.206081-50.719563-7.176149-35.272598-7.176149-71.761492 0-107.03409 4.865186-25.907115 25.177337-46.097636 51.084452-50.719562 3.892149-0.486519 7.176149-2.797482 9.000594-6.203112s1.946074-7.419408 0.486518-11.068298c-9.000594-24.812448-2.432593-52.544008 16.541632-70.910085 25.663856-24.2043 56.314527-42.448747 89.76268-53.760304 6.203112-2.067704 12.649483-3.162371 19.217484-3.162371 18.730966 0.12163 36.488894 8.757335 47.922081 23.596152 2.189334 3.040741 5.594964 4.865186 9.365483 4.865186 3.648889 0 7.176149-1.824445 9.365483-4.865186 11.554816-14.960447 29.434375-23.596152 48.28697-23.596152 6.568001-0.12163 13.014372 0.973037 19.217484 3.040742 33.326523 11.189928 63.977194 29.556004 89.64105 53.638674 19.095855 18.244447 25.663856 46.097636 16.541632 70.910084-1.337926 3.648889-1.216296 7.662668 0.608148 11.068298 1.946074 3.40563 5.230075 5.716593 9.122224 6.203112 25.785485 4.621927 46.219266 24.812448 51.084452 50.719563zM816.378192 262.963297c-17.14978 0-31.13719-13.987409-31.13719-31.137189V107.277349c0-17.14978 13.987409-31.13719 31.13719-31.13719 17.14978 0 31.13719 13.987409 31.13719 31.13719v124.548759c0 17.27141-13.987409 31.13719-31.13719 31.137189z m31.13719-92.438532v-32.110226h124.548759c34.42119 0 62.274379 27.853189 62.274379 62.274379v185.241953h-0.364889c0.243259 1.581185 0.364889 3.284 0.364889 4.865186 0 17.14978-13.987409 31.13719-31.13719 31.137189-17.14978 0-31.13719-13.987409-31.137189-31.137189V200.688918H847.515382v-30.164153zM442.731916 387.512056c-17.14978 0-31.13719-13.987409-31.13719-31.13719 0-17.14978 13.987409-31.13719 31.13719-31.137189h435.920656c17.14978 0 31.13719 13.987409 31.137189 31.137189 0 17.14978-13.987409 31.13719-31.137189 31.13719H442.731916z m31.13719-249.097517V107.277349c0-17.14978 13.987409-31.13719 31.137189-31.13719 17.14978 0 31.13719 13.987409 31.13719 31.13719v124.548759c0 17.14978-13.987409 31.13719-31.13719 31.137189-17.14978 0-31.13719-13.987409-31.137189-31.137189V200.688918H349.320347v685.018173h277.680484c17.14978 0 31.13719 13.987409 31.13719 31.13719 0 17.14978-13.987409 31.13719-31.13719 31.137189H349.320347c-34.42119 0-62.274379-27.853189-62.27438-62.274379V200.688918c0-34.42119 27.853189-62.274379 62.27438-62.274379h124.548759z m0 0" p-id="12846" fill="#1296db"></path></svg>