<?xml version="1.0" standalone="no"?><!DOCTYPE svg PUBLIC "-//W3C//DTD SVG 1.1//EN" "http://www.w3.org/Graphics/SVG/1.1/DTD/svg11.dtd"><svg t="1692443361246" class="icon" viewBox="0 0 1024 1024" version="1.1" xmlns="http://www.w3.org/2000/svg" p-id="17287" xmlns:xlink="http://www.w3.org/1999/xlink" width="200" height="200"><path d="M889.275259 1023.961438h-754.51066a133.410083 133.410083 0 0 1-134.70627-134.70627v-754.478255a133.410083 133.410083 0 0 1 134.70627-134.738675h754.51066a133.442488 133.442488 0 0 1 134.673866 134.738675v754.478255c0 75.438104-61.957756 134.706271-134.673866 134.70627z m-754.51066-970.066616c-45.787818 0-80.817282 35.029463-80.817281 80.849686v754.478255c0 45.787818 35.029463 80.817282 80.817281 80.817281h754.51066c45.755414 0 80.752472-35.029463 80.752472-80.817281v-754.478255c0-45.820223-34.997059-80.849686-80.752472-80.849686h-754.51066z" fill="#1296db" p-id="17288"></path><path d="M468.921699 754.484087h-140.117853c-35.029463 0-59.268167-26.960697-59.268166-59.268166v-363.807386c0-35.029463 26.928292-59.268167 59.268166-59.268167h140.117853c35.029463 0 59.268167 26.928292 59.268167 59.268167v363.807386c2.657184 32.275065-24.238704 59.268167-59.268167 59.268166z m-140.117853-444.624667a18.40586 18.40586 0 0 0-18.859526 18.859526V692.493927c0 10.758355 8.068766 18.859526 18.859526 18.859526h140.117853c10.758355 0 18.859526-8.101171 18.859527-18.859526v-363.807386a18.40586 18.40586 0 0 0-18.859527-18.859526h-140.117853v0.032405z" fill="#1296db" p-id="17289"></path><path d="M409.621128 371.84958h80.849686c10.758355 0 18.859526 8.101171 18.859526 18.859526s-8.101171 18.859526-18.859526 18.859526h-80.849686a18.438265 18.438265 0 0 1-18.859526-18.859526c-2.689589-10.79076 5.411582-18.859526 18.859526-18.859526z m40.441045 59.268167h18.859526c10.758355 0 18.859526 8.101171 18.859527 18.891931s-8.101171 18.859526-18.859527 18.859526h-18.859526c-10.79076 0-18.859526-8.101171-18.859526-18.859526s5.379178-18.891931 18.859526-18.891931z m0 59.300572h18.859526c10.758355 0 18.859526 8.101171 18.859527 18.859526s-8.101171 18.859526-18.859527 18.859526h-18.859526a18.40586 18.40586 0 0 1-18.859526-18.859526c-2.689589-10.79076 5.379178-18.859526 18.859526-18.859526z m-40.441045 61.957755h80.849686c10.758355 0 18.859526 8.101171 18.859526 18.859526s-8.101171 18.859526-18.859526 18.859526h-80.849686a18.438265 18.438265 0 0 1-18.859526-18.859526c-2.689589-10.758355 5.411582-18.859526 18.859526-18.859526z m40.441045 59.268167h18.859526c10.758355 0 18.859526 8.068766 18.859527 18.859526s-8.101171 18.859526-18.859527 18.859526h-18.859526a18.40586 18.40586 0 0 1-18.859526-18.859526c-2.689589-10.79076 5.379178-18.859526 18.859526-18.859526zM571.288096 269.450779h161.634563c10.823164 0 18.859526 8.101171 18.859526 18.859526a18.40586 18.40586 0 0 1-18.859526 18.827122h-161.634563a18.438265 18.438265 0 0 1-18.859526-18.827122c-2.721993-10.758355 5.379178-18.859526 18.859526-18.859526z m0 444.592263h161.634563c10.823164 0 18.859526 8.068766 18.859526 18.859526s-8.036362 18.859526-18.859526 18.859526h-161.634563a18.40586 18.40586 0 0 1-18.859526-18.859526c-2.721993-10.79076 5.379178-18.859526 18.859526-18.859526zM630.588667 390.709106h40.376236v242.48425h-40.376236zM652.137782 309.85942l80.817282 80.849686h-161.634563l80.817281-80.849686zM652.137782 714.043042l-80.817281-80.849686h161.634563l-80.817282 80.849686z" fill="#1296db" p-id="17290"></path></svg>