<?xml version="1.0" standalone="no"?><!DOCTYPE svg PUBLIC "-//W3C//DTD SVG 1.1//EN" "http://www.w3.org/Graphics/SVG/1.1/DTD/svg11.dtd"><svg t="1688812484246" class="icon" viewBox="0 0 1024 1024" version="1.1" xmlns="http://www.w3.org/2000/svg" p-id="1412" xmlns:xlink="http://www.w3.org/1999/xlink" width="200" height="200"><path d="M482.4 214c-28.8 16.4-38.4 53.2-22 82l60 104 104-60-60-104c-16.8-28.8-53.2-38.4-82-22z" fill="#1296db" p-id="1413"></path><path d="M662.4 526c28.8-16.4 38.4-53.2 22-82l-60-104-104 60 60 104c16.4 28.8 53.2 38.4 82 22z" fill="#1296db" p-id="1414"></path><path d="M411.6 450m-80 0a80 80 0 1 0 160 0 80 80 0 1 0-160 0Z" fill="#1296db" p-id="1415"></path><path d="M246 104h140V44h-200v200h60zM778 104v140h60V44h-200v60zM778 636h-140v60h200v-200h-60zM246 636v-140h-60v200h200v-60z" fill="#1296db" p-id="1416"></path><path d="M260 120v500h500V120H260z m460 460H300V160h420v420z" p-id="1417" fill="#1296db"></path><path d="M146 120H0v40h106v420H0v40h146z" p-id="1418" fill="#1296db"></path><path d="M1024 580h-106V160H1024V120h-146v500H1024z" p-id="1419" fill="#1296db"></path></svg>