<?xml version="1.0" standalone="no"?><!DOCTYPE svg PUBLIC "-//W3C//DTD SVG 1.1//EN" "http://www.w3.org/Graphics/SVG/1.1/DTD/svg11.dtd"><svg t="1692442352383" class="icon" viewBox="0 0 1347 1024" version="1.1" xmlns="http://www.w3.org/2000/svg" p-id="6918" xmlns:xlink="http://www.w3.org/1999/xlink" width="263.0859375" height="200"><path d="M803.127533 276.27544a34.060972 34.060972 0 0 1-28.994941-36.647881v-1.994076V38.818729a31.85132 31.85132 0 0 1 25.114577-38.588063h210.401952c25.114577 0 30.881229 5.820546 38.641957 27.054759v216.222498c-5.820546 25.114577-13.52738 30.881229-40.582139 30.881229h-46.348791c-7.706834 3.880364-7.706834 3.880364-5.766651 21.234214a490.434878 490.434878 0 0 0 0 75.289837v7.706834c-1.940182 13.52738 9.70091 7.760728 13.527379 7.760728h216.222498a103.153006 103.153006 0 0 1 98.464233 57.882094c7.706834 15.467562 11.587198 32.875305 11.587198 50.229155v320.453383c1.940182 55.995806-42.468427 104.230885-98.464233 106.171067h-48.288973c-7.706834 0-11.533304 1.940182-9.647016 9.700909v48.235079a30.719547 30.719547 0 0 1-27.000865 34.707699h-212.342134c-25.114577 0-34.761593-11.587198-34.761593-36.647881v-46.348791c0-7.706834-1.940182-9.647016-9.70091-9.647015h-57.882094c-9.70091 0-11.587198 3.880364-11.587198 11.587197v46.348791c0 23.174395-11.587198 34.707699-34.761593 34.707699h-204.6353c-23.174395 0-32.821411-11.587198-32.821411-34.707699v-46.348791c0-9.70091-1.886288-13.473486-11.587197-13.473485H445.972375c-9.70091 0-11.587198 1.886288-11.587198 11.533303v48.288973a30.719547 30.719547 0 0 1-27.054759 34.707699H193.048102c-19.294031 1.940182-34.761593-9.647016-36.647881-27.000865V980.884846v-48.235079c0-7.706834-1.940182-11.587198-11.587197-11.587197h-50.229155c-48.235079-3.880364-86.877035-38.588063-92.697581-86.877036C0 826.4787 0 816.831685 0 809.070957v-305.039715c0-73.295762 42.468427-115.818083 115.871977-115.818083h218.108785c1.940182 0 3.880364 0 3.880364-1.886288V287.808744c0-7.760728-1.940182-11.587198-11.587197-11.587198h-48.288973c-17.35385 1.940182-30.881229-9.70091-34.761593-27.054759v-7.706834V34.938365c-1.886288-15.413668 9.70091-30.881229 25.114577-34.761593h218.16268c17.35385-1.886288 30.881229 11.587198 32.821411 27.054759V237.633483c0 21.234213-7.706834 28.994941-28.941047 34.761593H436.325359c-3.880364 0-11.587198-3.82647-9.700909 5.820546a904.340357 904.340357 0 0 0 0 102.290703c0 3.880364 1.940182 3.880364 3.880364 3.880364h432.444995c1.940182 0 3.880364 0 3.880364-3.880364 1.886288-34.761593 1.886288-67.583004 0-102.290703 0-7.760728-5.820546-5.820546-9.70091-5.820546-17.35385 1.940182-36.647881 1.940182-54.00173 3.880364z m-405.44413 463.326225h3.880363a35.354426 35.354426 0 0 1 30.88123 34.761593V822.598336c0 7.706834 1.940182 11.587198 9.647015 9.70091h57.935989c9.647016 0 11.587198-3.880364 11.587197-11.641091v-48.235079a30.018926 30.018926 0 0 1 27.000866-32.875305H750.958196c17.407743-1.886288 30.935123 9.70091 34.761593 27.054759v55.995806c0 9.70091 3.880364 11.587198 11.587198 11.587198h55.995806c9.647016 0 11.587198-3.880364 11.587198-13.473486v-48.288972a30.018926 30.018926 0 0 1 27.000865-32.875305h214.282316c17.407743-1.886288 30.935123 11.641092 32.875305 27.054759V816.831685c0 11.587198 1.886288 15.413668 13.473486 15.413667h30.881229c19.294031 0 23.174395-5.766652 23.174395-23.174395V502.144954c0-23.174395-3.880364-27.054759-27.000865-27.05476H115.818083c-25.060683 0-28.941047 3.880364-28.941048 28.994942v295.338805c0 32.875305 1.940182 34.761593 34.761593 34.761593h21.234214c9.647016 0 13.473486-1.940182 13.473486-13.473486v-36.701774c0-34.761593 9.70091-44.408609 44.408608-44.408609H397.737297z" fill="#1296db" p-id="6919"></path></svg>