<?xml version="1.0" standalone="no"?><!DOCTYPE svg PUBLIC "-//W3C//DTD SVG 1.1//EN" "http://www.w3.org/Graphics/SVG/1.1/DTD/svg11.dtd"><svg t="1687936767113" class="icon" viewBox="0 0 1024 1024" version="1.1" xmlns="http://www.w3.org/2000/svg" p-id="12453" xmlns:xlink="http://www.w3.org/1999/xlink" width="500" height="500"><path d="M440.9 805.48H239.06c-45.24 0-81.91-33.59-81.91-75.11V230.02c0-41.52 36.67-75.11 81.91-75.11h6.79v207c0 49 39.72 88.72 88.72 88.72h354.87c48.99 0 88.71-39.72 88.71-88.72v-207h6.8c45.24 0 81.91 33.59 81.91 75.11v231.7A327.973 327.973 0 0 1 926 486.78V223.93c0-70.79-61.81-128.16-137.98-128.16H235.98C159.8 95.77 98 153.14 98 223.93v512.54c0 70.79 61.8 128.16 137.98 128.15h215.69c-5.33-19.07-8.96-38.84-10.77-59.14zM305 154.91h414v207c0 16.33-13.24 29.57-29.57 29.57H334.57c-16.33 0-29.57-13.24-29.57-29.57v-207z" p-id="12454" fill="#1296db"></path><path d="M615.5 357.95a29.58 29.58 0 0 0 29.57 0 29.545 29.545 0 0 0 14.79-25.61V214.05c0-16.33-13.24-29.57-29.57-29.57-16.34 0-29.58 13.24-29.58 29.58v118.28c0 10.56 5.64 20.33 14.79 25.61zM723.24 749.2c12.62-0.03 22.84-10.26 22.87-22.88-0.03-12.61-10.25-22.84-22.87-22.87-12.62 0.02-22.85 10.24-22.89 22.87 0.04 12.62 10.27 22.85 22.89 22.88z m0 51.07c-40.79 0-73.95-33.15-73.95-73.95 0-40.8 33.16-73.94 73.95-73.94 40.8 0 73.94 33.14 73.94 73.93 0 40.81-33.14 73.96-73.94 73.96z m-55.83 78.09c-0.01 0-0.02-0.01-0.03-0.01l0.03 0.01z m-8.2-4.76c3.74-3.53 7.66-6.86 11.75-9.98 15.86-12.09 31.7-18.76 47.57-18.76 16.03 0 31.99 6.81 47.94 19.11 4.63 3.62 8.38 6.92 11.83 10.23l28.18-16.2c-0.14-0.49-0.27-0.98-0.41-1.47-1.95-7.2-3.11-14.45-3.11-21.75 0-42.55 29.75-78.53 69.84-85.9 1.12-8.04 1.9-16.3 1.9-22.83 0-6.47-0.79-14.77-1.91-22.82-40.07-7.37-69.83-43.34-69.83-85.89 0-7.47 1.23-14.89 3.27-22.28 0.09-0.34 0.18-0.66 0.28-0.98l-27.86-16.09c-3.73 3.39-7.65 6.58-11.72 9.55-15.57 11.38-31.02 17.65-46.4 17.65-15.55 0-31.11-6.4-46.79-18.01-4.11-3.05-8.05-6.32-11.8-9.8l-29.35 16.76 0.25 0.91c2.03 7.37 3.26 14.8 3.26 22.27 0 42.55-29.75 78.53-69.81 85.9-0.16 1.22-0.34 2.48-0.49 3.77-0.9 7.3-1.43 13.93-1.43 19.05 0 5.11 0.53 11.74 1.43 19.04 0.16 1.3 0.33 2.58 0.49 3.8 40.07 7.37 69.81 43.35 69.81 85.89 0 7.48-1.23 14.91-3.26 22.3l-0.28 1 26.65 15.53z m117.43 54.63a40.884 40.884 0 0 1-22.91-7.07 36.77 36.77 0 0 1-6.81-6.01 95.424 95.424 0 0 0-11.29-10.45c-8.15-6.29-13.95-8.77-17.11-8.77-3.13 0-8.89 2.44-16.63 8.32a95.37 95.37 0 0 0-11.45 10.37c-2.14 2.38-4.56 4.47-7.32 6.32-9.18 6.08-21.03 8.31-31.94 5.46-3.32-0.86-6.5-2.17-9.47-3.9l-43.68-25.38c-16.77-9.77-23.57-30.56-16.18-48.43 1.5-3.63 3.14-9.58 3.14-13.9 0-19.5-14.32-35.2-32.12-36.16-17.88-0.97-32.47-14.31-35.52-31.87-0.88-5.11-1.64-10.23-2.28-15.38-1.14-9.21-1.81-17.77-1.81-25.33 0-7.58 0.67-16.15 1.82-25.35 0.73-5.91 1.55-11.22 2.27-15.36 3.05-17.54 17.65-30.89 35.52-31.86 17.8-0.96 32.12-16.65 32.12-36.15 0-4.34-1.63-10.27-3.12-13.85-7.43-17.98-0.52-38.92 16.45-48.6l46.19-26.36c5.59-3.17 11.71-4.77 18.68-4.94 8.34 0 16.59 2.5 23.3 7.15 2.33 1.6 4.45 3.45 6.39 5.53 3.47 3.59 7.23 6.89 11.24 9.88 7.62 5.65 13.29 7.98 16.38 7.98 3.06 0 8.7-2.29 16.26-7.81 4.02-2.96 7.8-6.25 11.29-9.82 1.7-1.79 3.57-3.42 5.58-4.86 12.15-8.64 29.17-10.15 42.71-2.4l44.51 25.71c16.86 9.71 23.71 30.56 16.33 48.45-1.52 3.69-3.17 9.65-3.17 13.94 0 19.5 14.33 35.2 32.12 36.15 17.91 0.96 32.52 14.35 35.55 31.91 2.28 13.18 4.08 27.99 4.08 40.66 0 12.74-1.79 27.49-4.07 40.65-3.03 17.59-17.65 30.97-35.54 31.92-17.8 0.96-32.14 16.66-32.14 36.16 0 4.26 1.59 10.11 3.18 13.97 7.34 17.92 0.44 38.75-16.41 48.42l-45.27 26a37.761 37.761 0 0 1-18.87 5.06z m0 0" p-id="12455" fill="#1296db"></path></svg>