<?xml version="1.0" standalone="no"?><!DOCTYPE svg PUBLIC "-//W3C//DTD SVG 1.1//EN" "http://www.w3.org/Graphics/SVG/1.1/DTD/svg11.dtd"><svg t="1692443944495" class="icon" viewBox="0 0 1024 1024" version="1.1" xmlns="http://www.w3.org/2000/svg" p-id="38335" xmlns:xlink="http://www.w3.org/1999/xlink" width="200" height="200"><path d="M691.2 1018.88c-39.936 0-75.776-23.552-91.136-60.416s-7.168-78.848 21.504-107.008c18.944-18.432 43.52-28.672 69.632-28.672 12.8 0 25.6 2.56 37.888 7.68 36.864 15.36 60.928 50.688 60.928 90.624 0 53.76-44.032 97.792-98.816 97.792z m0-143.872c-18.432 0-35.328 11.264-42.496 28.16-7.168 17.408-3.072 36.864 10.24 50.176 8.704 8.704 19.968 13.312 32.256 13.312 6.144 0 12.288-1.024 17.92-3.584 23.552-9.728 34.304-36.352 24.576-59.904-2.56-5.632-5.632-10.752-10.24-14.848-8.192-8.704-19.968-13.312-32.256-13.312zM349.696 1018.88c-39.936 0-75.776-23.552-91.136-60.416-15.36-36.864-7.168-78.848 21.504-107.008 18.944-18.432 43.52-28.672 69.632-28.672 12.8 0 25.6 2.56 37.888 7.68 36.864 15.36 60.928 50.688 60.928 90.624 0 53.76-44.544 97.792-98.816 97.792z m0-143.872c-18.432 0-35.328 11.264-42.496 28.16-7.168 17.408-3.072 36.864 10.24 50.176 8.704 8.704 19.968 13.312 32.256 13.312 6.144 0 12.288-1.024 17.92-3.584a44.544 44.544 0 0 0 24.576-24.576c4.608-11.264 4.608-23.552 0-34.816-2.56-5.632-5.632-10.752-10.24-14.848-8.192-9.216-19.968-13.824-32.256-13.824z m-189.952-261.12c-6.656 0-12.8-2.56-17.408-6.656-5.632-4.608-8.704-11.264-9.216-17.92-0.512-7.168 1.536-13.824 6.144-18.944l105.984-117.248v-0.512c5.12-6.656 12.8-10.24 20.992-10.24 6.144 0 11.264 2.048 16.384 5.632 4.096 3.072 7.68 7.68 9.216 12.8 3.072 9.216 0.512 19.456-6.144 26.112l-105.472 118.272c-5.12 5.632-12.288 8.704-20.48 8.704z m301.568 0c-7.168 0-13.824-3.584-18.944-8.704L336.896 486.912l-0.512-0.512c-7.68-6.656-10.752-17.408-7.68-27.136 3.072-11.264 13.824-18.944 25.088-18.944 2.56 0 5.12 0.512 7.68 1.024 5.632 1.536 10.752 5.632 14.336 10.24l0.512 0.512 105.472 117.248c9.728 10.752 8.704 27.136-2.048 36.352l-0.512 0.512c-4.608 4.608-10.752 6.656-17.408 6.656h-0.512v1.024z" p-id="38336" fill="#1296db"></path><path d="M363.52 343.04c-10.24 0-19.968-6.144-23.552-15.36-4.096-9.728-1.536-20.48 6.656-27.648l152.576-135.68c5.12-4.608 11.264-7.168 17.92-7.168 2.56 0 5.12 0.512 7.168 1.024 8.704 2.56 15.872 9.728 17.408 18.432 2.048 8.704-1.024 17.92-8.704 24.064L380.416 336.384c-4.608 4.608-10.752 6.656-16.896 6.656z m394.752 0c-6.144 0-11.776-2.56-16.384-6.656l-153.6-135.168c-6.656-6.144-9.728-15.36-7.68-23.552 2.048-8.704 8.704-15.872 17.408-18.432 2.56-0.512 5.12-1.024 7.68-1.024 6.144 0 12.288 2.048 16.896 6.144l152.576 135.68c7.68 7.168 10.24 17.92 6.656 27.136-4.096 9.728-13.312 15.872-23.552 15.872zM159.744 613.888c-6.656 0-12.8-2.56-17.408-6.656-5.632-4.608-8.704-11.264-9.216-17.92-0.512-7.168 1.536-13.824 6.144-18.944l105.984-117.248v-0.512c5.12-6.656 12.8-10.24 20.992-10.24 6.144 0 11.264 2.048 16.384 5.632 4.096 3.072 7.68 7.68 9.216 12.8 3.072 9.216 0.512 19.456-6.144 26.112l-105.472 118.272c-5.12 5.632-12.288 8.704-20.48 8.704z m301.568 0c-7.168 0-13.824-3.584-18.944-8.704L336.896 486.912l-0.512-0.512c-7.68-6.656-10.752-17.408-7.68-27.136 3.072-11.264 13.824-18.944 25.088-18.944 2.56 0 5.12 0.512 7.68 1.024 5.632 1.536 10.752 5.632 14.336 10.24l0.512 0.512 105.472 117.248c9.728 10.752 8.704 27.136-2.048 36.352l-0.512 0.512c-4.608 4.608-10.752 6.656-17.408 6.656h-0.512v1.024z m-112.64 263.168c-10.24 0-19.968-6.144-24.064-15.36-4.096-9.216-2.56-19.968 4.096-27.136l105.984-116.736c5.12-5.632 12.288-8.704 19.968-8.704 2.048 0 3.584 0 5.632 0.512 9.216 2.048 16.896 8.704 19.968 17.408s1.024 18.432-5.632 25.088L368.64 868.864c-5.12 5.12-12.288 8.192-19.968 8.192z m304.64 0c-7.68 0-14.848-3.072-19.968-8.704l-105.472-116.736c-9.728-10.24-8.704-26.624 1.536-35.84l0.512-0.512c5.12-4.096 11.264-6.656 17.92-6.656 7.68 0 14.848 3.072 19.968 8.704l105.472 117.248c6.656 7.68 8.192 18.432 4.096 27.136-4.096 9.216-13.824 15.36-24.064 15.36z" fill="#1296db" p-id="38337"></path><path d="M564.224 215.552c-55.296 0-99.84-45.056-99.84-99.84S508.928 15.36 564.224 15.36s99.84 45.056 99.84 99.84-45.056 100.352-99.84 100.352z m0-146.432c-25.6 0-46.592 20.992-46.592 46.592s20.992 46.592 46.592 46.592 46.592-20.992 46.592-46.592c-0.512-25.6-20.992-46.592-46.592-46.592zM490.496 756.224c-53.76 0-97.28-44.032-97.28-97.28 0-53.76 44.032-97.28 97.792-97.28s97.792 43.52 97.792 97.28c0 25.6-10.24 50.688-28.672 69.12-18.944 17.92-43.52 28.16-69.632 28.16z m0-142.848c-25.088 0-45.568 20.48-45.568 45.568s20.48 45.568 45.568 45.568 45.568-20.48 45.568-45.568c-0.512-25.088-20.48-45.568-45.568-45.568z m-338.432 142.848c-39.424 0-74.752-23.552-90.112-59.904-15.36-36.352-6.656-78.336 20.992-105.984 18.432-18.432 43.008-28.672 69.12-28.672 12.8 0 25.6 2.56 37.376 7.168 36.352 14.848 60.416 50.176 60.416 90.112-0.512 53.248-44.032 97.28-97.792 97.28z m0-142.848c-25.088 0-45.568 20.48-45.568 45.568s20.48 45.568 45.568 45.568 45.568-20.48 45.568-45.568-20.48-45.568-45.568-45.568z m169.472-117.248c-39.424 0-75.264-23.552-90.112-60.416-15.36-36.352-6.656-78.336 20.992-106.496 18.432-18.432 43.008-28.672 69.12-28.672 12.8 0 25.6 2.56 37.376 7.68 36.864 15.36 60.416 50.688 60.416 90.112 0 54.272-44.032 97.792-97.792 97.792z m0-142.848c-18.432 0-35.328 11.264-41.984 28.16-7.168 16.896-3.072 36.864 10.24 49.664 8.704 8.704 19.968 13.312 32.256 13.312 6.144 0 11.776-1.024 17.408-3.584 23.04-9.728 34.304-36.352 24.576-59.392-7.68-16.896-24.064-28.16-42.496-28.16z m481.28 130.048c-39.424 0-74.752-23.552-90.112-59.904s-7.168-78.336 20.992-106.496c18.432-18.432 43.008-28.672 69.12-28.672 12.8 0 25.6 2.56 37.376 7.68 36.864 15.36 60.416 50.688 60.416 90.112-0.512 53.76-44.032 97.28-97.792 97.28z m0-142.848c-18.432 0-34.816 10.752-41.984 28.16-7.168 16.896-3.072 36.864 9.728 49.664 8.704 8.704 19.968 13.312 32.256 13.312 6.144 0 11.776-1.024 17.408-3.584 23.04-9.728 34.304-36.352 24.576-59.392-7.168-16.896-23.552-28.16-41.984-28.16z m-73.728 489.472c-12.288-5.12-24.576-7.68-37.888-7.68-26.112 0-51.2 10.24-69.632 28.672-28.16 28.16-36.864 70.144-21.504 107.008 15.36 36.864 51.2 60.416 91.136 60.416 54.272 0 98.816-44.032 98.816-98.304 0-39.424-24.064-74.752-60.928-90.112z m-19.968 133.12c-5.632 2.56-11.776 3.584-17.92 3.584-12.288 0-23.552-4.608-32.256-13.312-13.312-13.312-17.408-32.768-10.24-50.176s24.064-28.16 42.496-28.16c12.288 0 23.552 4.608 32.256 13.312 4.096 4.096 7.68 9.216 10.24 14.848 9.728 23.552-1.536 50.176-24.576 59.904z m-321.536-133.12c-12.288-5.12-24.576-7.68-37.888-7.68-26.112 0-51.2 10.24-69.632 28.672-28.16 28.16-36.864 70.144-21.504 107.008s51.2 60.416 91.136 60.416c54.272 0 98.816-44.032 98.816-98.304 0-39.424-24.064-74.752-60.928-90.112z m4.608 108.544a44.544 44.544 0 0 1-24.576 24.576c-5.632 2.56-11.776 3.584-17.92 3.584-12.288 0-23.552-4.608-32.256-13.312-13.312-13.312-17.408-32.768-10.24-50.176 7.168-17.408 23.552-28.16 42.496-28.16 12.288 0 23.552 4.608 32.256 13.312 4.096 4.096 7.68 9.216 10.24 14.848 4.608 11.264 4.608 24.064 0 35.328z" fill="#1296db" p-id="38338"></path></svg>