<?xml version="1.0" standalone="no"?><!DOCTYPE svg PUBLIC "-//W3C//DTD SVG 1.1//EN" "http://www.w3.org/Graphics/SVG/1.1/DTD/svg11.dtd"><svg t="1688027293596" class="icon" viewBox="0 0 1024 1024" version="1.1" xmlns="http://www.w3.org/2000/svg" p-id="4409" xmlns:xlink="http://www.w3.org/1999/xlink" width="500" height="500"><path d="M684.4 386.6c0-79.5-31-154.3-87.2-210.6s-131-87.2-210.6-87.2c-79.5 0-154.3 31-210.6 87.2S88.8 307 88.8 386.6c0 79.5 31 154.3 87.2 210.6s131 87.2 210.6 87.2c79.5 0 154.3-31 210.6-87.2s87.2-131 87.2-210.6zM386.6 133.8c139.4 0 252.8 113.4 252.8 252.8v2.6h-33.6c-11 0-18.3-6-18.3-9.9v-79.9c0-22.4-21.2-39.9-48.3-39.9s-48.3 17.5-48.3 39.9v174.1c0 3.9-7.3 9.9-18.3 9.9h-7c-11 0-18.3-6-18.3-9.9V223.1c0-22.4-21.2-39.9-48.3-39.9h-11.2c-27.1 0-48.3 17.5-48.3 39.9V522c0 3.9-7.3 9.9-18.3 9.9h-13.3c-11 0-18.3-6-18.3-9.9V271.9c0-22.4-21.2-39.9-48.3-39.9h-6.7c-27.1 0-48.3 17.5-48.3 39.9v107.4c0 3.9-7.3 9.9-18.3 9.9h-33.6v-2.6c-0.6-139.4 112.8-252.8 252.2-252.8z m0 505.6c-128.4 0-234.7-96.2-250.7-220.2h31.6c27.1 0 48.3-17.5 48.3-39.9V271.9c0-3.9 7.3-9.9 18.3-9.9h6.7c11 0 18.3 6 18.3 9.9V522c0 22.4 21.2 39.9 48.3 39.9h13.3c27.1 0 48.3-17.5 48.3-39.9V223.1c0-3.9 7.3-9.9 18.3-9.9h11.2c11 0 18.3 6 18.3 9.9v250.4c0 22.4 21.2 39.9 48.3 39.9h7c27.1 0 48.3-17.5 48.3-39.9V299.4c0-3.9 7.3-9.9 18.3-9.9s18.3 6 18.3 9.9v79.9c0 22.4 21.2 39.9 48.3 39.9h31.6C621.3 543.3 515 639.4 386.6 639.4zM914 796.5l-201-201c-28.3-28.3-74.3-28.3-102.5 0l-15 15c-28.3 28.3-28.3 74.3 0 102.5l201 201c14.1 14.1 32.7 21.2 51.3 21.2s37.1-7.1 51.3-21.2l15-15c28.2-28.3 28.2-74.2-0.1-102.5z" fill="#1296db" p-id="4410"></path></svg>