<?xml version="1.0" standalone="no"?><!DOCTYPE svg PUBLIC "-//W3C//DTD SVG 1.1//EN" "http://www.w3.org/Graphics/SVG/1.1/DTD/svg11.dtd"><svg t="1692443689220" class="icon" viewBox="0 0 1024 1024" version="1.1" xmlns="http://www.w3.org/2000/svg" p-id="25753" xmlns:xlink="http://www.w3.org/1999/xlink" width="200" height="200"><path d="M511.448786 1023.583293c-219.453087 0-397.993118-163.614342-397.993118-364.694436a337.64636 337.64636 0 0 1 13.940745-95.994152 348.973215 348.973215 0 0 1 44.701302-94.706148L495.121446 7.992441a21.062647 21.062647 0 0 1 33.071387 0L842.314185 455.76311a2.31083 2.31083 0 0 0 0.265178 0.378825l8.182611 12.236034a347.079092 347.079092 0 0 1 44.701302 94.706149 336.320474 336.320474 0 0 1 13.978627 95.994151c0 200.890682-178.540031 364.505023-397.993117 364.505024zM197.024373 467.506673l16.516753 11.364738-8.182612 11.667797a308.628396 308.628396 0 0 0-39.43564 83.568705 299.574488 299.574488 0 0 0-12.311799 84.856709c0 179.221915 160.50798 325.069383 357.799828 325.069383s357.837711-145.847468 357.837711-325.069383a299.574488 299.574488 0 0 0-12.311799-84.856709 306.84792 306.84792 0 0 0-39.700818-83.94753l-8.068964-12.084504L511.638198 54.209042 216.950547 474.24975z m307.60557 516.451568c208.694468 0 377.915414-154.408904 377.915414-344.73038a316.924655 316.924655 0 0 0-13.145213-90.425431 329.577396 329.577396 0 0 0-42.20106-89.326839l-8.182611-12.236034-8.258376-11.70568L220.738793 866.371087a392.878986 392.878986 0 0 0 283.89115 117.587154z" fill="#1296db" p-id="25754"></path></svg>