<?xml version="1.0" standalone="no"?><!DOCTYPE svg PUBLIC "-//W3C//DTD SVG 1.1//EN" "http://www.w3.org/Graphics/SVG/1.1/DTD/svg11.dtd"><svg t="1692443282884" class="icon" viewBox="0 0 1024 1024" version="1.1" xmlns="http://www.w3.org/2000/svg" p-id="14305" xmlns:xlink="http://www.w3.org/1999/xlink" width="200" height="200"><path d="M889.20424 1023.993004H134.7158A133.399793 133.399793 0 0 1 0.016659 889.260545V134.772105A133.43311 133.43311 0 0 1 134.7158 0.00633h754.48844a133.43311 133.43311 0 0 1 134.765775 134.765775v754.48844a133.399793 133.399793 0 0 1-134.765775 134.732459zM134.7158 53.91264c-45.810369 0-80.826148 35.049096-80.826148 80.859465v754.48844c0 45.810369 35.01578 80.826148 80.826148 80.826149h754.48844c45.810369 0 80.892782-35.01578 80.892782-80.826149V134.772105c0-45.810369-35.082413-80.859465-80.892782-80.859465H134.7158z" fill="#1296db" p-id="14306"></path><path d="M660.152398 482.39784l45.810368 16.125249 129.368481-53.872993L762.60104 732.972226l-123.971186 53.872994L474.245593 732.972226l-156.288319 53.872994L188.655427 732.972226l72.763523-288.32213 113.143281 48.509016-10.794588 51.174346-67.332913-35.01578-56.604957 199.40004 78.160818 35.01578 153.622988-51.174346 164.384261 51.174346 88.888773-35.01578 64.667582-199.40004-83.591429 40.413074-35.01578-16.158566-10.794588-51.174346z m-180.50951 129.301847h-35.01578c0-83.558112 16.12525-164.38426 32.283816-242.511762-35.01578 53.872993-59.270288 169.781555-59.270288 239.813115l-48.475699 35.049096-75.428854 16.158567c0-5.397294 83.491479-59.270288 83.491479-64.667582 10.794589-123.971186 51.207663-355.688359 134.765775-358.387007 86.223443-5.397294 137.431106 245.210409 145.49373 369.148279 0 2.698647 51.207663 45.810369 51.207663 48.509015l-51.207663-8.062625s-48.475699-32.350449-48.475699-35.049096c0-70.064876-24.287824-188.638768-59.270287-242.511762 16.12525 80.859465 32.350449 156.288319 32.350449 245.210409h-35.082413c0-94.319384-13.459919-169.781555-32.35045-253.30635-18.857214 80.859465-35.01578 164.38426-35.015779 250.607703z" fill="#1296db" p-id="14307"></path></svg>